<svg width="1521" height="141" viewBox="0 0 1521 141" fill="none" xmlns="http://www.w3.org/2000/svg">
<g clip-path="url(#clip0_230_1001)">
<path d="M184 105.594C192.07 97.3198 202.34 89 219.939 89C240.503 89 251.124 100.417 259.653 109.587L259.975 109.933C268.597 119.199 275.179 125.987 288.774 125.987C302.369 125.987 308.951 119.199 317.573 109.933L317.895 109.587C326.424 100.417 337.044 89 357.609 89V104.084C344.024 104.084 337.448 110.87 328.823 120.138L328.509 120.476C319.976 129.649 309.352 141.07 288.774 141.07C268.196 141.07 257.572 129.649 249.039 120.476L248.725 120.138C240.1 110.87 233.524 104.084 219.939 104.084C208.394 104.084 201.855 109.032 195.004 116.057L184 105.594Z" fill="#FE724D"/>
<path d="M26.6013 2.76V14.32H12.1213V2.76H6.92125V30.76H12.1213V18.76H26.6013V30.76H31.8013V2.76H26.6013Z" fill="#131313"/>
<path d="M47.0556 9.16C43.6156 9.16 40.2956 10.04 38.0156 11.8L39.9756 15.44C41.5756 14.12 44.0556 13.32 46.4556 13.32C50.0156 13.32 51.7756 15.04 51.7756 17.96V18.28H46.2556C39.7756 18.28 37.3756 21.08 37.3756 24.64C37.3756 28.36 40.4556 31.04 45.3356 31.04C48.5356 31.04 50.8556 30 52.0556 28.16V30.76H56.7756V18.24C56.7756 12.08 53.2156 9.16 47.0556 9.16ZM46.3756 27.4C43.8156 27.4 42.2956 26.24 42.2956 24.44C42.2956 22.88 43.2156 21.6 46.6156 21.6H51.7756V24.08C50.9356 26.28 48.8156 27.4 46.3756 27.4Z" fill="#131313"/>
<path d="M72.6828 31.04C76.8428 31.04 80.1628 29.24 81.8028 26.04L77.9628 23.8C76.6828 25.84 74.7628 26.76 72.6428 26.76C68.9628 26.76 66.1628 24.24 66.1628 20.08C66.1628 15.96 68.9628 13.4 72.6428 13.4C74.7628 13.4 76.6828 14.32 77.9628 16.36L81.8028 14.12C80.1628 10.88 76.8428 9.16 72.6828 9.16C65.9228 9.16 61.1228 13.68 61.1228 20.08C61.1228 26.48 65.9228 31.04 72.6828 31.04Z" fill="#131313"/>
<path d="M102.93 9.4H82.9297V13.64H90.4497V30.76H95.4497V13.64H102.93V9.4Z" fill="#131313"/>
<path d="M115.139 31.04C121.779 31.04 126.539 26.48 126.539 20.08C126.539 13.68 121.779 9.16 115.139 9.16C108.579 9.16 103.779 13.68 103.779 20.08C103.779 26.48 108.579 31.04 115.139 31.04ZM115.139 26.76C111.539 26.76 108.819 24.16 108.819 20.08C108.819 16 111.539 13.4 115.139 13.4C118.779 13.4 121.499 16 121.499 20.08C121.499 24.16 118.779 26.76 115.139 26.76Z" fill="#131313"/>
<path d="M139.015 9.4C133.055 9.4 129.255 12.08 129.255 17.08C129.255 20.36 130.975 22.6 134.015 23.64L128.975 30.76H134.335L138.695 24.32H144.335V30.76H148.815V9.4H139.015ZM139.175 13.6H144.335V20.84H139.015C135.935 20.84 134.335 19.72 134.335 17.24C134.335 14.68 136.095 13.6 139.175 13.6Z" fill="#131313"/>
<path d="M187.021 26.52V9.4H182.021V26.52H173.821V9.4H168.821V26.52H160.541V9.4H155.541V30.76H185.421V35.16H190.101V26.52H187.021Z" fill="#131313"/>
<path d="M193.744 30.76H198.344L210.104 16.68V30.76H215.104V9.4H210.544L198.744 23.48V9.4H193.744V30.76Z" fill="#131313"/>
<path d="M232.19 6.88C236.47 6.88 238.83 4.88 238.91 1H235.51C235.47 2.92 234.19 4.12 232.15 4.12C230.07 4.12 228.87 2.92 228.83 1H225.51C225.55 4.88 227.91 6.88 232.19 6.88ZM221.83 30.76H226.43L238.19 16.68V30.76H243.19V9.4H238.63L226.83 23.48V9.4H221.83V30.76Z" fill="#131313"/>
<path d="M23.2812 58.4H3.28125V62.64H10.8012V79.76H15.8013V62.64H23.2812V58.4Z" fill="#131313"/>
<path d="M34.8681 58.16C31.4281 58.16 28.1081 59.04 25.8281 60.8L27.7881 64.44C29.3881 63.12 31.8681 62.32 34.2681 62.32C37.8281 62.32 39.5881 64.04 39.5881 66.96V67.28H34.0681C27.5881 67.28 25.1881 70.08 25.1881 73.64C25.1881 77.36 28.2681 80.04 33.1481 80.04C36.3481 80.04 38.6681 79 39.8681 77.16V79.76H44.5881V67.24C44.5881 61.08 41.0281 58.16 34.8681 58.16ZM34.1881 76.4C31.6281 76.4 30.1081 75.24 30.1081 73.44C30.1081 71.88 31.0281 70.6 34.4281 70.6H39.5881V73.08C38.7481 75.28 36.6281 76.4 34.1881 76.4Z" fill="#131313"/>
<path d="M61.1353 55.88C65.4153 55.88 67.7753 53.88 67.8553 50H64.4553C64.4153 51.92 63.1353 53.12 61.0953 53.12C59.0153 53.12 57.8153 51.92 57.7753 50H54.4553C54.4953 53.88 56.8553 55.88 61.1353 55.88ZM50.7753 79.76H55.3753L67.1353 65.68V79.76H72.1353V58.4H67.5753L55.7753 72.48V58.4H50.7753V79.76Z" fill="#131313"/>
<path d="M88.5813 80.04C92.7413 80.04 96.0612 78.24 97.7012 75.04L93.8613 72.8C92.5813 74.84 90.6613 75.76 88.5413 75.76C84.8613 75.76 82.0612 73.24 82.0612 69.08C82.0612 64.96 84.8613 62.4 88.5413 62.4C90.6613 62.4 92.5813 63.32 93.8613 65.36L97.7012 63.12C96.0612 59.88 92.7413 58.16 88.5813 58.16C81.8213 58.16 77.0212 62.68 77.0212 69.08C77.0212 75.48 81.8213 80.04 88.5813 80.04Z" fill="#131313"/>
<path d="M117.423 79.76H123.303L115.023 68.68L122.783 58.4H117.423L111.103 67.04H107.103V58.4H102.103V79.76H107.103V71.2H110.983L117.423 79.76Z" fill="#131313"/>
<path d="M126.83 79.76H131.43L143.19 65.68V79.76H148.19V58.4H143.63L131.83 72.48V58.4H126.83V79.76Z" fill="#131313"/>
<path d="M165.276 55.88C169.556 55.88 171.916 53.88 171.996 50H168.596C168.556 51.92 167.276 53.12 165.236 53.12C163.156 53.12 161.956 51.92 161.916 50H158.596C158.636 53.88 160.996 55.88 165.276 55.88ZM154.916 79.76H159.516L171.276 65.68V79.76H176.276V58.4H171.716L159.916 72.48V58.4H154.916V79.76Z" fill="#131313"/>
<path d="M214.937 51.76H191.257V56.16H200.497V79.76H205.657V56.16H214.937V51.76Z" fill="#131313"/>
<path d="M226.194 80.04C232.834 80.04 237.594 75.48 237.594 69.08C237.594 62.68 232.834 58.16 226.194 58.16C219.634 58.16 214.834 62.68 214.834 69.08C214.834 75.48 219.634 80.04 226.194 80.04ZM226.194 75.76C222.594 75.76 219.874 73.16 219.874 69.08C219.874 65 222.594 62.4 226.194 62.4C229.834 62.4 232.554 65 232.554 69.08C232.554 73.16 229.834 75.76 226.194 75.76Z" fill="#131313"/>
<path d="M268.053 79.76L268.013 58.4H263.333L255.373 71.76L247.773 58.4H242.533V79.76H247.093V65.56L254.173 77.52H256.333L263.533 65.6V79.76H268.053Z" fill="#131313"/>
<path d="M294.054 58.4C288.094 58.4 284.294 61.08 284.294 66.08C284.294 69.36 286.014 71.6 289.054 72.64L284.014 79.76H289.374L293.734 73.32H299.374V79.76H303.854V58.4H294.054ZM294.214 62.6H299.374V69.84H294.054C290.974 69.84 289.374 68.72 289.374 66.24C289.374 63.68 291.134 62.6 294.214 62.6Z" fill="#131313"/>
<path d="M336.1 79.76L336.06 58.4H331.38L323.42 71.76L315.82 58.4H310.58V79.76H315.14V65.56L322.22 77.52H324.38L331.58 65.6V79.76H336.1Z" fill="#131313"/>
<path d="M535.12 2.76V14.32H520.64V2.76H515.44V30.76H520.64V18.76H535.12V30.76H540.32V2.76H535.12Z" fill="black"/>
<path d="M555.574 9.16C552.134 9.16 548.814 10.04 546.534 11.8L548.494 15.44C550.094 14.12 552.574 13.32 554.974 13.32C558.534 13.32 560.294 15.04 560.294 17.96V18.28H554.774C548.294 18.28 545.894 21.08 545.894 24.64C545.894 28.36 548.974 31.04 553.854 31.04C557.054 31.04 559.374 30 560.574 28.16V30.76H565.294V18.24C565.294 12.08 561.734 9.16 555.574 9.16ZM554.894 27.4C552.334 27.4 550.814 26.24 550.814 24.44C550.814 22.88 551.734 21.6 555.134 21.6H560.294V24.08C559.454 26.28 557.334 27.4 554.894 27.4Z" fill="black"/>
<path d="M581.202 31.04C585.362 31.04 588.682 29.24 590.322 26.04L586.482 23.8C585.202 25.84 583.282 26.76 581.162 26.76C577.482 26.76 574.682 24.24 574.682 20.08C574.682 15.96 577.482 13.4 581.162 13.4C583.282 13.4 585.202 14.32 586.482 16.36L590.322 14.12C588.682 10.88 585.362 9.16 581.202 9.16C574.442 9.16 569.642 13.68 569.642 20.08C569.642 26.48 574.442 31.04 581.202 31.04Z" fill="black"/>
<path d="M611.448 9.4H591.448V13.64H598.968V30.76H603.968V13.64H611.448V9.4Z" fill="black"/>
<path d="M623.658 31.04C630.298 31.04 635.058 26.48 635.058 20.08C635.058 13.68 630.298 9.16 623.658 9.16C617.098 9.16 612.298 13.68 612.298 20.08C612.298 26.48 617.098 31.04 623.658 31.04ZM623.658 26.76C620.058 26.76 617.338 24.16 617.338 20.08C617.338 16 620.058 13.4 623.658 13.4C627.298 13.4 630.018 16 630.018 20.08C630.018 24.16 627.298 26.76 623.658 26.76Z" fill="black"/>
<path d="M647.534 9.4C641.574 9.4 637.774 12.08 637.774 17.08C637.774 20.36 639.494 22.6 642.534 23.64L637.494 30.76H642.854L647.214 24.32H652.854V30.76H657.334V9.4H647.534ZM647.694 13.6H652.854V20.84H647.534C644.454 20.84 642.854 19.72 642.854 17.24C642.854 14.68 644.614 13.6 647.694 13.6Z" fill="black"/>
<path d="M695.54 26.52V9.4H690.54V26.52H682.34V9.4H677.34V26.52H669.06V9.4H664.06V30.76H693.94V35.16H698.62V26.52H695.54Z" fill="black"/>
<path d="M702.263 30.76H706.863L718.623 16.68V30.76H723.623V9.4H719.063L707.263 23.48V9.4H702.263V30.76Z" fill="black"/>
<path d="M740.709 6.88C744.989 6.88 747.349 4.88 747.429 1H744.029C743.989 2.92 742.709 4.12 740.669 4.12C738.589 4.12 737.389 2.92 737.349 1H734.029C734.069 4.88 736.429 6.88 740.709 6.88ZM730.349 30.76H734.949L746.709 16.68V30.76H751.709V9.4H747.149L735.349 23.48V9.4H730.349V30.76Z" fill="black"/>
<path d="M543.12 69.04C543.12 62.44 538.48 58.64 530.4 58.12V50.08H525.68V58.12C517.56 58.64 513 62.4 513 69.04C513 75.76 517.6 79.6 525.68 80.12V87.52H530.4V80.08C538.48 79.56 543.12 75.72 543.12 69.04ZM517.92 69.04C517.92 65.08 520.32 62.8 525.68 62.36V75.92C520.36 75.44 517.92 73.12 517.92 69.04ZM530.4 75.92V62.36C535.72 62.8 538.24 65 538.24 69.04C538.24 73.12 535.72 75.44 530.4 75.92Z" fill="black"/>
<path d="M559.806 58.16C556.886 58.16 554.406 59.16 552.726 61.2V58.4H547.966V87.52H552.966V77.16C554.686 79.12 557.086 80.04 559.806 80.04C566.046 80.04 570.646 75.72 570.646 69.08C570.646 62.48 566.046 58.16 559.806 58.16ZM559.246 75.76C555.646 75.76 552.886 73.16 552.886 69.08C552.886 65 555.646 62.4 559.246 62.4C562.846 62.4 565.566 65 565.566 69.08C565.566 73.16 562.846 75.76 559.246 75.76Z" fill="black"/>
<path d="M583.309 58.16C579.869 58.16 576.549 59.04 574.269 60.8L576.229 64.44C577.829 63.12 580.309 62.32 582.709 62.32C586.269 62.32 588.029 64.04 588.029 66.96V67.28H582.509C576.029 67.28 573.629 70.08 573.629 73.64C573.629 77.36 576.709 80.04 581.589 80.04C584.789 80.04 587.109 79 588.309 77.16V79.76H593.029V67.24C593.029 61.08 589.469 58.16 583.309 58.16ZM582.629 76.4C580.069 76.4 578.549 75.24 578.549 73.44C578.549 71.88 579.469 70.6 582.869 70.6H588.029V73.08C587.189 75.28 585.069 76.4 582.629 76.4Z" fill="black"/>
<path d="M599.216 79.76H604.216V71.32H614.976V79.76H619.976V58.4H614.976V67.08H604.216V58.4H599.216V79.76Z" fill="black"/>
<path d="M646.877 75.52V58.4H641.877V75.52H631.677V58.4H626.677V79.76H645.437V84.68H650.117V75.52H646.877Z" fill="black"/>
<path d="M669.928 58.4L663.168 74.2L656.448 58.4H651.247L660.568 79.84L660.208 80.68C659.248 82.8 658.208 83.64 656.448 83.64C655.088 83.64 653.728 83.08 652.768 82.16L650.768 85.84C652.128 87.08 654.368 87.8 656.488 87.8C660.048 87.8 662.768 86.32 664.728 81.48L674.728 58.4H669.928Z" fill="black"/>
<path d="M690.452 68.64C692.652 67.76 694.053 66.04 694.053 63.96C694.053 60.44 690.053 58.08 684.573 58.08C681.773 58.08 679.012 58.68 676.092 60.04L677.372 63.72C679.732 62.68 681.973 62.16 684.133 62.16C687.133 62.16 688.933 63.12 688.933 64.68C688.933 66.24 687.453 67.12 684.933 67.12H681.173V70.48H685.333C688.013 70.48 689.533 71.4 689.533 73.08C689.533 74.92 687.493 76 684.173 76C681.533 76 678.812 75.32 676.732 74.16L675.293 77.88C677.853 79.32 681.133 80.12 684.413 80.12C690.373 80.12 694.653 77.44 694.653 73.48C694.653 71.12 693.092 69.4 690.452 68.64Z" fill="black"/>
<path d="M709.522 80.04C713.682 80.04 717.002 78.24 718.642 75.04L714.802 72.8C713.522 74.84 711.602 75.76 709.482 75.76C705.802 75.76 703.002 73.24 703.002 69.08C703.002 64.96 705.802 62.4 709.482 62.4C711.602 62.4 713.522 63.32 714.802 65.36L718.642 63.12C717.002 59.88 713.682 58.16 709.522 58.16C702.762 58.16 697.962 62.68 697.962 69.08C697.962 75.48 702.762 80.04 709.522 80.04Z" fill="black"/>
<path d="M738.364 79.76H744.244L735.964 68.68L743.724 58.4H738.364L732.044 67.04H728.044V58.4H723.044V79.76H728.044V71.2H731.924L738.364 79.76Z" fill="black"/>
<path d="M747.771 79.76H752.371L764.131 65.68V79.76H769.131V58.4H764.571L752.771 72.48V58.4H747.771V79.76Z" fill="black"/>
<path d="M786.217 55.88C790.497 55.88 792.857 53.88 792.937 50H789.537C789.497 51.92 788.217 53.12 786.177 53.12C784.097 53.12 782.897 51.92 782.857 50H779.537C779.577 53.88 781.937 55.88 786.217 55.88ZM775.857 79.76H780.457L792.217 65.68V79.76H797.217V58.4H792.657L780.857 72.48V58.4H775.857V79.76Z" fill="black"/>
<path d="M827.077 51.76H815.557V79.76H820.757V71.68H827.077C834.437 71.68 838.997 67.88 838.997 61.72C838.997 55.52 834.437 51.76 827.077 51.76ZM826.837 67.28H820.757V56.16H826.837C831.397 56.16 833.757 58.2 833.757 61.72C833.757 65.24 831.397 67.28 826.837 67.28Z" fill="black"/>
<path d="M851.121 58.16C847.681 58.16 844.361 59.04 842.081 60.8L844.041 64.44C845.641 63.12 848.121 62.32 850.521 62.32C854.081 62.32 855.841 64.04 855.841 66.96V67.28H850.321C843.841 67.28 841.441 70.08 841.441 73.64C841.441 77.36 844.521 80.04 849.401 80.04C852.601 80.04 854.921 79 856.121 77.16V79.76H860.841V67.24C860.841 61.08 857.281 58.16 851.121 58.16ZM850.441 76.4C847.881 76.4 846.361 75.24 846.361 73.44C846.361 71.88 847.281 70.6 850.681 70.6H855.841V73.08C855.001 75.28 852.881 76.4 850.441 76.4Z" fill="black"/>
<path d="M883.948 58.4H863.948V62.64H871.468V79.76H876.468V62.64H883.948V58.4Z" fill="black"/>
<path d="M895.535 58.16C892.095 58.16 888.775 59.04 886.495 60.8L888.455 64.44C890.055 63.12 892.535 62.32 894.935 62.32C898.495 62.32 900.255 64.04 900.255 66.96V67.28H894.735C888.255 67.28 885.855 70.08 885.855 73.64C885.855 77.36 888.935 80.04 893.815 80.04C897.015 80.04 899.335 79 900.535 77.16V79.76H905.255V67.24C905.255 61.08 901.695 58.16 895.535 58.16ZM894.855 76.4C892.295 76.4 890.775 75.24 890.775 73.44C890.775 71.88 891.695 70.6 895.095 70.6H900.255V73.08C899.415 75.28 897.295 76.4 894.855 76.4Z" fill="black"/>
<path d="M928.362 58.4H908.362V62.64H915.882V79.76H920.882V62.64H928.362V58.4Z" fill="black"/>
<path d="M947.506 58.4L940.746 74.2L934.026 58.4H928.826L938.146 79.84L937.786 80.68C936.826 82.8 935.786 83.64 934.026 83.64C932.666 83.64 931.306 83.08 930.346 82.16L928.346 85.84C929.706 87.08 931.946 87.8 934.066 87.8C937.626 87.8 940.346 86.32 942.306 81.48L952.306 58.4H947.506Z" fill="black"/>
<path d="M966.138 55.88C970.418 55.88 972.778 53.88 972.858 50H969.458C969.418 51.92 968.138 53.12 966.098 53.12C964.018 53.12 962.818 51.92 962.778 50H959.458C959.498 53.88 961.858 55.88 966.138 55.88ZM955.778 79.76H960.378L972.138 65.68V79.76H977.138V58.4H972.578L960.778 72.48V58.4H955.778V79.76Z" fill="black"/>
<path d="M805.52 105.594C813.59 97.3198 823.859 89 841.459 89C862.023 89 872.643 100.417 881.172 109.587L881.494 109.933C890.116 119.199 896.698 125.987 910.293 125.987C923.889 125.987 930.471 119.199 939.093 109.933L939.415 109.587C947.944 100.417 958.564 89 979.128 89V104.084C965.544 104.084 958.967 110.87 950.343 120.138L950.028 120.476C941.496 129.649 930.871 141.07 910.293 141.07C889.716 141.07 879.091 129.649 870.559 120.476L870.244 120.138C861.62 110.87 855.043 104.084 841.459 104.084C829.913 104.084 823.375 109.032 816.524 116.057L805.52 105.594Z" fill="#FE724D"/>
<path d="M1040.24 1V12.56H1025.76V1H1020.56V29H1025.76V17H1040.24V29H1045.44V1H1040.24Z" fill="black"/>
<path d="M1060.69 7.4C1057.25 7.4 1053.93 8.28 1051.65 10.04L1053.61 13.68C1055.21 12.36 1057.69 11.56 1060.09 11.56C1063.65 11.56 1065.41 13.28 1065.41 16.2V16.52H1059.89C1053.41 16.52 1051.01 19.32 1051.01 22.88C1051.01 26.6 1054.09 29.28 1058.97 29.28C1062.17 29.28 1064.49 28.24 1065.69 26.4V29H1070.41V16.48C1070.41 10.32 1066.85 7.4 1060.69 7.4ZM1060.01 25.64C1057.45 25.64 1055.93 24.48 1055.93 22.68C1055.93 21.12 1056.85 19.84 1060.25 19.84H1065.41V22.32C1064.57 24.52 1062.45 25.64 1060.01 25.64Z" fill="black"/>
<path d="M1086.32 29.28C1090.48 29.28 1093.8 27.48 1095.44 24.28L1091.6 22.04C1090.32 24.08 1088.4 25 1086.28 25C1082.6 25 1079.8 22.48 1079.8 18.32C1079.8 14.2 1082.6 11.64 1086.28 11.64C1088.4 11.64 1090.32 12.56 1091.6 14.6L1095.44 12.36C1093.8 9.12 1090.48 7.4 1086.32 7.4C1079.56 7.4 1074.76 11.92 1074.76 18.32C1074.76 24.72 1079.56 29.28 1086.32 29.28Z" fill="black"/>
<path d="M1116.57 7.64H1096.57V11.88H1104.09V29H1109.09V11.88H1116.57V7.64Z" fill="black"/>
<path d="M1128.78 29.28C1135.42 29.28 1140.18 24.72 1140.18 18.32C1140.18 11.92 1135.42 7.4 1128.78 7.4C1122.22 7.4 1117.42 11.92 1117.42 18.32C1117.42 24.72 1122.22 29.28 1128.78 29.28ZM1128.78 25C1125.18 25 1122.46 22.4 1122.46 18.32C1122.46 14.24 1125.18 11.64 1128.78 11.64C1132.42 11.64 1135.14 14.24 1135.14 18.32C1135.14 22.4 1132.42 25 1128.78 25Z" fill="black"/>
<path d="M1152.65 7.64C1146.69 7.64 1142.89 10.32 1142.89 15.32C1142.89 18.6 1144.61 20.84 1147.65 21.88L1142.61 29H1147.97L1152.33 22.56H1157.97V29H1162.45V7.64H1152.65ZM1152.81 11.84H1157.97V19.08H1152.65C1149.57 19.08 1147.97 17.96 1147.97 15.48C1147.97 12.92 1149.73 11.84 1152.81 11.84Z" fill="black"/>
<path d="M1200.66 24.76V7.64H1195.66V24.76H1187.46V7.64H1182.46V24.76H1174.18V7.64H1169.18V29H1199.06V33.4H1203.74V24.76H1200.66Z" fill="black"/>
<path d="M1215.34 7.4C1211.9 7.4 1208.58 8.28 1206.3 10.04L1208.26 13.68C1209.86 12.36 1212.34 11.56 1214.74 11.56C1218.3 11.56 1220.06 13.28 1220.06 16.2V16.52H1214.54C1208.06 16.52 1205.66 19.32 1205.66 22.88C1205.66 26.6 1208.74 29.28 1213.62 29.28C1216.82 29.28 1219.14 28.24 1220.34 26.4V29H1225.06V16.48C1225.06 10.32 1221.5 7.4 1215.34 7.4ZM1214.66 25.64C1212.1 25.64 1210.58 24.48 1210.58 22.68C1210.58 21.12 1211.5 19.84 1214.9 19.84H1220.06V22.32C1219.22 24.52 1217.1 25.64 1214.66 25.64Z" fill="black"/>
<path d="M1239.49 7.64C1233.53 7.64 1229.73 10.32 1229.73 15.32C1229.73 18.6 1231.45 20.84 1234.49 21.88L1229.45 29H1234.81L1239.17 22.56H1244.81V29H1249.29V7.64H1239.49ZM1239.65 11.84H1244.81V19.08H1239.49C1236.41 19.08 1234.81 17.96 1234.81 15.48C1234.81 12.92 1236.57 11.84 1239.65 11.84Z" fill="black"/>
<path d="M1020 78H1024.6L1036.36 63.92V78H1041.36V56.64H1036.8L1025 70.72V56.64H1020V78Z" fill="black"/>
<path d="M1057.81 78.28C1061.97 78.28 1065.29 76.48 1066.93 73.28L1063.09 71.04C1061.81 73.08 1059.89 74 1057.77 74C1054.09 74 1051.29 71.48 1051.29 67.32C1051.29 63.2 1054.09 60.64 1057.77 60.64C1059.89 60.64 1061.81 61.56 1063.09 63.6L1066.93 61.36C1065.29 58.12 1061.97 56.4 1057.81 56.4C1051.05 56.4 1046.25 60.92 1046.25 67.32C1046.25 73.72 1051.05 78.28 1057.81 78.28Z" fill="black"/>
<path d="M1071.33 56.64V78H1076.33V60.88H1086.85V78H1091.81V56.64H1071.33Z" fill="black"/>
<path d="M1106.51 56.4C1103.07 56.4 1099.75 57.28 1097.47 59.04L1099.43 62.68C1101.03 61.36 1103.51 60.56 1105.91 60.56C1109.47 60.56 1111.23 62.28 1111.23 65.2V65.52H1105.71C1099.23 65.52 1096.83 68.32 1096.83 71.88C1096.83 75.6 1099.91 78.28 1104.79 78.28C1107.99 78.28 1110.31 77.24 1111.51 75.4V78H1116.23V65.48C1116.23 59.32 1112.67 56.4 1106.51 56.4ZM1105.83 74.64C1103.27 74.64 1101.75 73.48 1101.75 71.68C1101.75 70.12 1102.67 68.84 1106.07 68.84H1111.23V71.32C1110.39 73.52 1108.27 74.64 1105.83 74.64Z" fill="black"/>
<path d="M1122.42 78H1127.42V69.56H1138.18V78H1143.18V56.64H1138.18V65.32H1127.42V56.64H1122.42V78Z" fill="black"/>
<path d="M1159.6 78.28C1163.76 78.28 1167.08 76.48 1168.72 73.28L1164.88 71.04C1163.6 73.08 1161.68 74 1159.56 74C1155.88 74 1153.08 71.48 1153.08 67.32C1153.08 63.2 1155.88 60.64 1159.56 60.64C1161.68 60.64 1163.6 61.56 1164.88 63.6L1168.72 61.36C1167.08 58.12 1163.76 56.4 1159.6 56.4C1152.84 56.4 1148.04 60.92 1148.04 67.32C1148.04 73.72 1152.84 78.28 1159.6 78.28Z" fill="black"/>
<path d="M1188.44 78H1194.32L1186.04 66.92L1193.8 56.64H1188.44L1182.12 65.28H1178.12V56.64H1173.12V78H1178.12V69.44H1182.01L1188.44 78Z" fill="black"/>
<path d="M1205.42 56.4C1201.98 56.4 1198.66 57.28 1196.38 59.04L1198.34 62.68C1199.94 61.36 1202.42 60.56 1204.82 60.56C1208.38 60.56 1210.14 62.28 1210.14 65.2V65.52H1204.62C1198.14 65.52 1195.74 68.32 1195.74 71.88C1195.74 75.6 1198.82 78.28 1203.7 78.28C1206.9 78.28 1209.22 77.24 1210.42 75.4V78H1215.14V65.48C1215.14 59.32 1211.58 56.4 1205.42 56.4ZM1204.74 74.64C1202.18 74.64 1200.66 73.48 1200.66 71.68C1200.66 70.12 1201.58 68.84 1204.98 68.84H1210.14V71.32C1209.3 73.52 1207.18 74.64 1204.74 74.64Z" fill="black"/>
<path d="M1229.57 56.64C1223.61 56.64 1219.81 59.32 1219.81 64.32C1219.81 67.6 1221.53 69.84 1224.57 70.88L1219.53 78H1224.89L1229.25 71.56H1234.89V78H1239.37V56.64H1229.57ZM1229.73 60.84H1234.89V68.08H1229.57C1226.49 68.08 1224.89 66.96 1224.89 64.48C1224.89 61.92 1226.65 60.84 1229.73 60.84Z" fill="black"/>
<path d="M1257.75 50V78H1262.87V54.4H1277.39V78H1282.51V50H1257.75Z" fill="black"/>
<path d="M1297.8 56.4C1294.36 56.4 1291.04 57.28 1288.76 59.04L1290.72 62.68C1292.32 61.36 1294.8 60.56 1297.2 60.56C1300.76 60.56 1302.52 62.28 1302.52 65.2V65.52H1297C1290.52 65.52 1288.12 68.32 1288.12 71.88C1288.12 75.6 1291.2 78.28 1296.08 78.28C1299.28 78.28 1301.6 77.24 1302.8 75.4V78H1307.52V65.48C1307.52 59.32 1303.96 56.4 1297.8 56.4ZM1297.12 74.64C1294.56 74.64 1293.04 73.48 1293.04 71.68C1293.04 70.12 1293.96 68.84 1297.36 68.84H1302.52V71.32C1301.68 73.52 1299.56 74.64 1297.12 74.64Z" fill="black"/>
<path d="M1320.08 56.32C1316.2 56.32 1312.96 57.6 1310.8 60.04L1313.68 62.84C1315.36 61.12 1317.44 60.28 1319.88 60.28C1323.48 60.28 1326.2 62.28 1327 65.4H1317.16V69H1327.04C1326.32 72.2 1323.56 74.36 1319.88 74.36C1317.44 74.36 1315.36 73.52 1313.68 71.84L1310.8 74.64C1312.96 77.04 1316.2 78.36 1320.08 78.36C1326.88 78.36 1331.84 73.72 1331.84 67.32C1331.84 60.92 1326.88 56.32 1320.08 56.32Z" fill="black"/>
<path d="M1338.53 56.64L1338.17 64.88C1337.93 69.32 1337.81 73.88 1334.53 73.88C1334.25 73.88 1333.93 73.84 1333.57 73.76L1333.33 77.96C1334.37 78.24 1335.29 78.4 1336.09 78.4C1341.13 78.4 1342.25 72.72 1342.61 65.12L1342.81 60.88H1350.81V78H1355.81V56.64H1338.53Z" fill="black"/>
<path d="M1373.26 63.68L1367.54 63.64V56.64H1362.54V78L1372.54 78.04C1378.38 78.08 1381.7 75.4 1381.7 70.72C1381.7 66.28 1378.74 63.68 1373.26 63.68ZM1372.1 74.36L1367.54 74.32V67.08L1372.1 67.12C1375.06 67.16 1376.62 68.2 1376.62 70.64C1376.62 73.12 1375.02 74.4 1372.1 74.36Z" fill="black"/>
<path d="M1392.81 56.64C1386.85 56.64 1383.05 59.32 1383.05 64.32C1383.05 67.6 1384.77 69.84 1387.81 70.88L1382.77 78H1388.13L1392.49 71.56H1398.13V78H1402.61V56.64H1392.81ZM1392.97 60.84H1398.13V68.08H1392.81C1389.73 68.08 1388.13 66.96 1388.13 64.48C1388.13 61.92 1389.89 60.84 1392.97 60.84Z" fill="black"/>
<path d="M1274.64 105.594C1282.71 97.3198 1292.98 89 1310.58 89C1331.14 89 1341.76 100.417 1350.29 109.587L1350.62 109.933C1359.24 119.199 1365.82 125.987 1379.41 125.987C1393.01 125.987 1399.59 119.199 1408.21 109.933L1408.54 109.587C1417.06 100.417 1427.69 89 1448.25 89V104.084C1434.66 104.084 1428.09 110.87 1419.46 120.138L1419.15 120.476C1410.62 129.649 1399.99 141.07 1379.41 141.07C1358.84 141.07 1348.21 129.649 1339.68 120.476L1339.37 120.138C1330.74 110.87 1324.16 104.084 1310.58 104.084C1299.03 104.084 1292.5 109.032 1285.64 116.057L1274.64 105.594Z" fill="#FE724D"/>
</g>
<defs>
<clipPath id="clip0_230_1001">
<rect width="1521" height="141" fill="white"/>
</clipPath>
</defs>
</svg>
