<svg width="900" height="73" viewBox="0 0 900 73" fill="none" xmlns="http://www.w3.org/2000/svg">
<path d="M17.824 29.736H11.92V45H10.168V29.736H4.264V28.2H17.824V29.736ZM24.1743 32.28C25.8223 32.28 27.0863 32.696 27.9663 33.528C28.8463 34.344 29.2863 35.56 29.2863 37.176V45H27.6543V43.032C27.2703 43.688 26.7023 44.2 25.9503 44.568C25.2143 44.936 24.3343 45.12 23.3103 45.12C21.9023 45.12 20.7823 44.784 19.9503 44.112C19.1183 43.44 18.7023 42.552 18.7023 41.448C18.7023 40.376 19.0863 39.512 19.8543 38.856C20.6383 38.2 21.8783 37.872 23.5742 37.872H27.5823V37.104C27.5823 36.016 27.2783 35.192 26.6703 34.632C26.0623 34.056 25.1743 33.768 24.0063 33.768C23.2063 33.768 22.4383 33.904 21.7023 34.176C20.9663 34.432 20.3343 34.792 19.8063 35.256L19.0383 33.984C19.6783 33.44 20.4463 33.024 21.3423 32.736C22.2383 32.432 23.1823 32.28 24.1743 32.28ZM23.5742 43.776C24.5343 43.776 25.3583 43.56 26.0463 43.128C26.7343 42.68 27.2463 42.04 27.5823 41.208V39.144H23.6223C21.4623 39.144 20.3823 39.896 20.3823 41.4C20.3823 42.136 20.6623 42.72 21.2223 43.152C21.7823 43.568 22.5663 43.776 23.5742 43.776ZM33.8224 32.376H35.5264V42.408L43.9504 32.376H45.4624V45H43.7584V34.968L35.3584 45H33.8224V32.376ZM39.5584 30.552C38.4704 30.552 37.6064 30.28 36.9664 29.736C36.3264 29.192 35.9984 28.424 35.9824 27.432H37.2064C37.2224 28.056 37.4464 28.56 37.8784 28.944C38.3104 29.312 38.8704 29.496 39.5584 29.496C40.2464 29.496 40.8064 29.312 41.2384 28.944C41.6864 28.56 41.9184 28.056 41.9344 27.432H43.1584C43.1424 28.424 42.8064 29.192 42.1504 29.736C41.5104 30.28 40.6464 30.552 39.5584 30.552ZM55.6259 45.12C54.3779 45.12 53.2579 44.848 52.2659 44.304C51.2899 43.76 50.5219 43 49.9619 42.024C49.4019 41.032 49.1219 39.92 49.1219 38.688C49.1219 37.456 49.4019 36.352 49.9619 35.376C50.5219 34.4 51.2899 33.64 52.2659 33.096C53.2579 32.552 54.3779 32.28 55.6259 32.28C56.7139 32.28 57.6819 32.496 58.5299 32.928C59.3939 33.344 60.0739 33.96 60.5699 34.776L59.2979 35.64C58.8819 35.016 58.3539 34.552 57.7139 34.248C57.0739 33.928 56.3779 33.768 55.6259 33.768C54.7139 33.768 53.8899 33.976 53.1539 34.392C52.4339 34.792 51.8659 35.368 51.4499 36.12C51.0499 36.872 50.8499 37.728 50.8499 38.688C50.8499 39.664 51.0499 40.528 51.4499 41.28C51.8659 42.016 52.4339 42.592 53.1539 43.008C53.8899 43.408 54.7139 43.608 55.6259 43.608C56.3779 43.608 57.0739 43.456 57.7139 43.152C58.3539 42.848 58.8819 42.384 59.2979 41.76L60.5699 42.624C60.0739 43.44 59.3939 44.064 58.5299 44.496C57.6659 44.912 56.6979 45.12 55.6259 45.12ZM68.4533 39.384H65.5733V45H63.8693V32.376H65.5733V37.92H68.4773L72.9173 32.376H74.7653L69.7973 38.496L75.1253 45H73.1093L68.4533 39.384ZM77.8146 32.376H79.5186V42.408L87.9426 32.376H89.4546V45H87.7506V34.968L79.3506 45H77.8146V32.376ZM94.3381 32.376H96.0421V42.408L104.466 32.376H105.978V45H104.274V34.968L95.8741 45H94.3381V32.376ZM100.074 30.552C98.9861 30.552 98.1221 30.28 97.4821 29.736C96.8421 29.192 96.5141 28.424 96.4981 27.432H97.7221C97.7381 28.056 97.9621 28.56 98.3941 28.944C98.8261 29.312 99.3861 29.496 100.074 29.496C100.762 29.496 101.322 29.312 101.754 28.944C102.202 28.56 102.434 28.056 102.45 27.432H103.674C103.658 28.424 103.322 29.192 102.666 29.736C102.026 30.28 101.162 30.552 100.074 30.552ZM128.543 29.736H122.639V45H120.887V29.736H114.983V28.2H128.543V29.736ZM135.148 45.12C133.932 45.12 132.836 44.848 131.86 44.304C130.884 43.744 130.116 42.976 129.556 42C128.996 41.024 128.716 39.92 128.716 38.688C128.716 37.456 128.996 36.352 129.556 35.376C130.116 34.4 130.884 33.64 131.86 33.096C132.836 32.552 133.932 32.28 135.148 32.28C136.364 32.28 137.46 32.552 138.436 33.096C139.412 33.64 140.172 34.4 140.716 35.376C141.276 36.352 141.556 37.456 141.556 38.688C141.556 39.92 141.276 41.024 140.716 42C140.172 42.976 139.412 43.744 138.436 44.304C137.46 44.848 136.364 45.12 135.148 45.12ZM135.148 43.608C136.044 43.608 136.844 43.408 137.548 43.008C138.268 42.592 138.828 42.008 139.228 41.256C139.628 40.504 139.828 39.648 139.828 38.688C139.828 37.728 139.628 36.872 139.228 36.12C138.828 35.368 138.268 34.792 137.548 34.392C136.844 33.976 136.044 33.768 135.148 33.768C134.252 33.768 133.444 33.976 132.724 34.392C132.02 34.792 131.46 35.368 131.044 36.12C130.644 36.872 130.444 37.728 130.444 38.688C130.444 39.648 130.644 40.504 131.044 41.256C131.46 42.008 132.02 42.592 132.724 43.008C133.444 43.408 134.252 43.608 135.148 43.608ZM159.309 32.376V45H157.749V35.016L152.637 43.464H151.869L146.757 34.992V45H145.197V32.376H146.925L152.277 41.472L157.725 32.376H159.309ZM182.752 28.2V45H181V39.912H175.984C175.76 39.912 175.44 39.896 175.024 39.864L171.496 45H169.6L173.416 39.552C172.184 39.184 171.24 38.536 170.584 37.608C169.928 36.664 169.6 35.512 169.6 34.152C169.6 32.264 170.192 30.8 171.376 29.76C172.576 28.72 174.192 28.2 176.224 28.2H182.752ZM171.376 34.104C171.376 35.48 171.776 36.544 172.576 37.296C173.392 38.032 174.576 38.4 176.128 38.4H181V29.736H176.296C174.728 29.736 173.512 30.112 172.648 30.864C171.8 31.6 171.376 32.68 171.376 34.104ZM202.13 32.376V45H200.57V35.016L195.458 43.464H194.69L189.578 34.992V45H188.018V32.376H189.746L195.098 41.472L200.546 32.376H202.13Z" fill="black"/>
<path d="M321.808 36.576C321.808 38.8 321.016 40.552 319.432 41.832C317.864 43.096 315.664 43.768 312.832 43.848V45.576H311.176V43.848C308.344 43.752 306.136 43.072 304.552 41.808C302.984 40.544 302.2 38.8 302.2 36.576C302.2 34.352 302.984 32.608 304.552 31.344C306.136 30.08 308.344 29.4 311.176 29.304V27.624H312.832V29.304C315.648 29.4 317.848 30.088 319.432 31.368C321.016 32.632 321.808 34.368 321.808 36.576ZM312.832 42.432C315.152 42.336 316.944 41.784 318.208 40.776C319.472 39.768 320.104 38.368 320.104 36.576C320.104 34.784 319.464 33.384 318.184 32.376C316.92 31.368 315.136 30.824 312.832 30.744V42.432ZM303.904 36.576C303.904 38.368 304.536 39.768 305.8 40.776C307.08 41.768 308.872 42.32 311.176 42.432V30.744C308.84 30.84 307.04 31.392 305.776 32.4C304.528 33.392 303.904 34.784 303.904 36.576ZM331.936 32.28C333.12 32.28 334.192 32.552 335.152 33.096C336.112 33.624 336.864 34.376 337.408 35.352C337.952 36.328 338.224 37.44 338.224 38.688C338.224 39.952 337.952 41.072 337.408 42.048C336.864 43.024 336.112 43.784 335.152 44.328C334.208 44.856 333.136 45.12 331.936 45.12C330.912 45.12 329.984 44.912 329.152 44.496C328.336 44.064 327.664 43.44 327.136 42.624V49.656H325.432V32.376H327.064V34.872C327.576 34.04 328.248 33.4 329.08 32.952C329.928 32.504 330.88 32.28 331.936 32.28ZM331.816 43.608C332.696 43.608 333.496 43.408 334.216 43.008C334.936 42.592 335.496 42.008 335.896 41.256C336.312 40.504 336.52 39.648 336.52 38.688C336.52 37.728 336.312 36.88 335.896 36.144C335.496 35.392 334.936 34.808 334.216 34.392C333.496 33.976 332.696 33.768 331.816 33.768C330.92 33.768 330.112 33.976 329.392 34.392C328.688 34.808 328.128 35.392 327.712 36.144C327.312 36.88 327.112 37.728 327.112 38.688C327.112 39.648 327.312 40.504 327.712 41.256C328.128 42.008 328.688 42.592 329.392 43.008C330.112 43.408 330.92 43.608 331.816 43.608ZM346.159 32.28C347.807 32.28 349.071 32.696 349.951 33.528C350.831 34.344 351.271 35.56 351.271 37.176V45H349.639V43.032C349.255 43.688 348.687 44.2 347.935 44.568C347.199 44.936 346.319 45.12 345.295 45.12C343.887 45.12 342.767 44.784 341.935 44.112C341.103 43.44 340.687 42.552 340.687 41.448C340.687 40.376 341.071 39.512 341.839 38.856C342.623 38.2 343.863 37.872 345.559 37.872H349.567V37.104C349.567 36.016 349.263 35.192 348.655 34.632C348.047 34.056 347.159 33.768 345.991 33.768C345.191 33.768 344.423 33.904 343.687 34.176C342.951 34.432 342.319 34.792 341.791 35.256L341.023 33.984C341.663 33.44 342.431 33.024 343.327 32.736C344.223 32.432 345.167 32.28 346.159 32.28ZM345.559 43.776C346.519 43.776 347.343 43.56 348.031 43.128C348.719 42.68 349.231 42.04 349.567 41.208V39.144H345.607C343.447 39.144 342.367 39.896 342.367 41.4C342.367 42.136 342.647 42.72 343.207 43.152C343.767 43.568 344.551 43.776 345.559 43.776ZM355.807 32.376H357.511V37.968H365.455V32.376H367.159V45H365.455V39.432H357.511V45H355.807V32.376ZM385.154 43.512V48.168H383.546V45H372.002V32.376H373.706V43.512H381.41V32.376H383.114V43.512H385.154ZM399.136 32.376L392.824 46.512C392.312 47.696 391.72 48.536 391.048 49.032C390.376 49.528 389.568 49.776 388.624 49.776C388.016 49.776 387.448 49.68 386.92 49.488C386.392 49.296 385.936 49.008 385.552 48.624L386.344 47.352C386.984 47.992 387.752 48.312 388.648 48.312C389.224 48.312 389.712 48.152 390.112 47.832C390.528 47.512 390.912 46.968 391.264 46.2L391.816 44.976L386.176 32.376H387.952L392.704 43.104L397.456 32.376H399.136ZM407.607 38.424C408.503 38.632 409.191 38.992 409.671 39.504C410.167 40.016 410.415 40.64 410.415 41.376C410.415 42.112 410.159 42.768 409.647 43.344C409.151 43.92 408.471 44.368 407.607 44.688C406.743 44.992 405.791 45.144 404.751 45.144C403.839 45.144 402.943 45.016 402.063 44.76C401.183 44.488 400.415 44.096 399.759 43.584L400.335 42.312C400.911 42.744 401.583 43.08 402.351 43.32C403.119 43.56 403.895 43.68 404.679 43.68C405.847 43.68 406.799 43.464 407.535 43.032C408.287 42.584 408.663 41.984 408.663 41.232C408.663 40.56 408.359 40.04 407.751 39.672C407.143 39.288 406.311 39.096 405.255 39.096H403.095V37.848H405.159C406.103 37.848 406.863 37.672 407.439 37.32C408.015 36.952 408.303 36.464 408.303 35.856C408.303 35.184 407.975 34.656 407.319 34.272C406.679 33.888 405.839 33.696 404.799 33.696C403.439 33.696 402.095 34.04 400.767 34.728L400.287 33.408C401.791 32.624 403.351 32.232 404.967 32.232C405.927 32.232 406.791 32.376 407.559 32.664C408.343 32.936 408.951 33.328 409.383 33.84C409.831 34.352 410.055 34.944 410.055 35.616C410.055 36.256 409.831 36.824 409.383 37.32C408.951 37.816 408.359 38.184 407.607 38.424ZM419.563 45.12C418.315 45.12 417.195 44.848 416.203 44.304C415.227 43.76 414.459 43 413.899 42.024C413.339 41.032 413.059 39.92 413.059 38.688C413.059 37.456 413.339 36.352 413.899 35.376C414.459 34.4 415.227 33.64 416.203 33.096C417.195 32.552 418.315 32.28 419.563 32.28C420.651 32.28 421.619 32.496 422.467 32.928C423.331 33.344 424.011 33.96 424.507 34.776L423.235 35.64C422.819 35.016 422.291 34.552 421.651 34.248C421.011 33.928 420.315 33.768 419.563 33.768C418.651 33.768 417.827 33.976 417.091 34.392C416.371 34.792 415.803 35.368 415.387 36.12C414.987 36.872 414.787 37.728 414.787 38.688C414.787 39.664 414.987 40.528 415.387 41.28C415.803 42.016 416.371 42.592 417.091 43.008C417.827 43.408 418.651 43.608 419.563 43.608C420.315 43.608 421.011 43.456 421.651 43.152C422.291 42.848 422.819 42.384 423.235 41.76L424.507 42.624C424.011 43.44 423.331 44.064 422.467 44.496C421.603 44.912 420.635 45.12 419.563 45.12ZM432.391 39.384H429.511V45H427.807V32.376H429.511V37.92H432.415L436.855 32.376H438.703L433.735 38.496L439.063 45H437.047L432.391 39.384ZM441.752 32.376H443.456V42.408L451.88 32.376H453.392V45H451.688V34.968L443.288 45H441.752V32.376ZM458.276 32.376H459.98V42.408L468.404 32.376H469.916V45H468.212V34.968L459.812 45H458.276V32.376ZM464.012 30.552C462.924 30.552 462.06 30.28 461.42 29.736C460.78 29.192 460.452 28.424 460.436 27.432H461.66C461.676 28.056 461.9 28.56 462.332 28.944C462.764 29.312 463.324 29.496 464.012 29.496C464.7 29.496 465.26 29.312 465.692 28.944C466.14 28.56 466.372 28.056 466.388 27.432H467.612C467.596 28.424 467.26 29.192 466.604 29.736C465.964 30.28 465.1 30.552 464.012 30.552ZM487.776 28.2C489.92 28.2 491.6 28.712 492.816 29.736C494.032 30.76 494.64 32.168 494.64 33.96C494.64 35.752 494.032 37.16 492.816 38.184C491.6 39.192 489.92 39.696 487.776 39.696H483.264V45H481.488V28.2H487.776ZM487.728 38.136C489.392 38.136 490.664 37.776 491.544 37.056C492.424 36.32 492.864 35.288 492.864 33.96C492.864 32.6 492.424 31.56 491.544 30.84C490.664 30.104 489.392 29.736 487.728 29.736H483.264V38.136H487.728ZM502.112 32.28C503.76 32.28 505.024 32.696 505.904 33.528C506.784 34.344 507.224 35.56 507.224 37.176V45H505.592V43.032C505.208 43.688 504.64 44.2 503.888 44.568C503.152 44.936 502.272 45.12 501.248 45.12C499.84 45.12 498.72 44.784 497.888 44.112C497.056 43.44 496.64 42.552 496.64 41.448C496.64 40.376 497.024 39.512 497.792 38.856C498.576 38.2 499.816 37.872 501.512 37.872H505.52V37.104C505.52 36.016 505.216 35.192 504.608 34.632C504 34.056 503.112 33.768 501.944 33.768C501.144 33.768 500.376 33.904 499.64 34.176C498.904 34.432 498.272 34.792 497.744 35.256L496.976 33.984C497.616 33.44 498.384 33.024 499.28 32.736C500.176 32.432 501.12 32.28 502.112 32.28ZM501.512 43.776C502.472 43.776 503.296 43.56 503.984 43.128C504.672 42.68 505.184 42.04 505.52 41.208V39.144H501.56C499.4 39.144 498.32 39.896 498.32 41.4C498.32 42.136 498.6 42.72 499.16 43.152C499.72 43.568 500.504 43.776 501.512 43.776ZM520.64 33.888H515.864V45H514.16V33.888H509.384V32.376H520.64V33.888ZM527.448 32.28C529.096 32.28 530.36 32.696 531.24 33.528C532.12 34.344 532.56 35.56 532.56 37.176V45H530.928V43.032C530.544 43.688 529.976 44.2 529.224 44.568C528.488 44.936 527.608 45.12 526.584 45.12C525.176 45.12 524.056 44.784 523.224 44.112C522.392 43.44 521.976 42.552 521.976 41.448C521.976 40.376 522.36 39.512 523.128 38.856C523.912 38.2 525.152 37.872 526.848 37.872H530.856V37.104C530.856 36.016 530.552 35.192 529.944 34.632C529.336 34.056 528.448 33.768 527.28 33.768C526.48 33.768 525.712 33.904 524.976 34.176C524.24 34.432 523.608 34.792 523.08 35.256L522.312 33.984C522.952 33.44 523.72 33.024 524.616 32.736C525.512 32.432 526.456 32.28 527.448 32.28ZM526.848 43.776C527.808 43.776 528.632 43.56 529.32 43.128C530.008 42.68 530.52 42.04 530.856 41.208V39.144H526.896C524.736 39.144 523.656 39.896 523.656 41.4C523.656 42.136 523.936 42.72 524.496 43.152C525.056 43.568 525.84 43.776 526.848 43.776ZM545.976 33.888H541.2V45H539.496V33.888H534.72V32.376H545.976V33.888ZM559.215 32.376L552.903 46.512C552.391 47.696 551.799 48.536 551.127 49.032C550.455 49.528 549.647 49.776 548.703 49.776C548.095 49.776 547.527 49.68 546.999 49.488C546.471 49.296 546.014 49.008 545.63 48.624L546.423 47.352C547.063 47.992 547.831 48.312 548.727 48.312C549.303 48.312 549.791 48.152 550.191 47.832C550.607 47.512 550.991 46.968 551.343 46.2L551.895 44.976L546.255 32.376H548.031L552.783 43.104L557.535 32.376H559.215ZM561.869 32.376H563.573V42.408L571.997 32.376H573.509V45H571.805V34.968L563.405 45H561.869V32.376ZM567.605 30.552C566.517 30.552 565.653 30.28 565.013 29.736C564.373 29.192 564.045 28.424 564.029 27.432H565.253C565.269 28.056 565.493 28.56 565.925 28.944C566.357 29.312 566.917 29.496 567.605 29.496C568.293 29.496 568.853 29.312 569.285 28.944C569.733 28.56 569.965 28.056 569.981 27.432H571.205C571.189 28.424 570.853 29.192 570.197 29.736C569.557 30.28 568.693 30.552 567.605 30.552Z" fill="black"/>
<path d="M600.832 28.2H602.584V42.12L613.336 28.2H614.944V45H613.192V31.104L602.44 45H600.832V28.2ZM625.485 45.12C624.237 45.12 623.117 44.848 622.125 44.304C621.149 43.76 620.381 43 619.821 42.024C619.261 41.032 618.981 39.92 618.981 38.688C618.981 37.456 619.261 36.352 619.821 35.376C620.381 34.4 621.149 33.64 622.125 33.096C623.117 32.552 624.237 32.28 625.485 32.28C626.573 32.28 627.541 32.496 628.389 32.928C629.253 33.344 629.933 33.96 630.429 34.776L629.157 35.64C628.741 35.016 628.213 34.552 627.573 34.248C626.933 33.928 626.237 33.768 625.485 33.768C624.573 33.768 623.749 33.976 623.013 34.392C622.293 34.792 621.725 35.368 621.309 36.12C620.909 36.872 620.709 37.728 620.709 38.688C620.709 39.664 620.909 40.528 621.309 41.28C621.725 42.016 622.293 42.592 623.013 43.008C623.749 43.408 624.573 43.608 625.485 43.608C626.237 43.608 626.933 43.456 627.573 43.152C628.213 42.848 628.741 42.384 629.157 41.76L630.429 42.624C629.933 43.44 629.253 44.064 628.389 44.496C627.525 44.912 626.557 45.12 625.485 45.12ZM645.057 32.376V45H643.353V33.888H635.433V45H633.729V32.376H645.057ZM654.245 32.28C655.893 32.28 657.157 32.696 658.037 33.528C658.917 34.344 659.357 35.56 659.357 37.176V45H657.725V43.032C657.341 43.688 656.773 44.2 656.021 44.568C655.285 44.936 654.405 45.12 653.381 45.12C651.973 45.12 650.853 44.784 650.021 44.112C649.189 43.44 648.773 42.552 648.773 41.448C648.773 40.376 649.157 39.512 649.925 38.856C650.709 38.2 651.949 37.872 653.645 37.872H657.653V37.104C657.653 36.016 657.349 35.192 656.741 34.632C656.133 34.056 655.245 33.768 654.077 33.768C653.277 33.768 652.509 33.904 651.773 34.176C651.037 34.432 650.405 34.792 649.877 35.256L649.109 33.984C649.749 33.44 650.517 33.024 651.413 32.736C652.309 32.432 653.253 32.28 654.245 32.28ZM653.645 43.776C654.605 43.776 655.429 43.56 656.117 43.128C656.805 42.68 657.317 42.04 657.653 41.208V39.144H653.693C651.533 39.144 650.453 39.896 650.453 41.4C650.453 42.136 650.733 42.72 651.293 43.152C651.853 43.568 652.637 43.776 653.645 43.776ZM663.893 32.376H665.597V37.968H673.541V32.376H675.245V45H673.541V39.432H665.597V45H663.893V32.376ZM685.368 45.12C684.12 45.12 683 44.848 682.008 44.304C681.032 43.76 680.264 43 679.704 42.024C679.144 41.032 678.864 39.92 678.864 38.688C678.864 37.456 679.144 36.352 679.704 35.376C680.264 34.4 681.032 33.64 682.008 33.096C683 32.552 684.12 32.28 685.368 32.28C686.456 32.28 687.424 32.496 688.272 32.928C689.136 33.344 689.816 33.96 690.312 34.776L689.04 35.64C688.624 35.016 688.096 34.552 687.456 34.248C686.816 33.928 686.12 33.768 685.368 33.768C684.456 33.768 683.632 33.976 682.896 34.392C682.176 34.792 681.608 35.368 681.192 36.12C680.792 36.872 680.592 37.728 680.592 38.688C680.592 39.664 680.792 40.528 681.192 41.28C681.608 42.016 682.176 42.592 682.896 43.008C683.632 43.408 684.456 43.608 685.368 43.608C686.12 43.608 686.816 43.456 687.456 43.152C688.096 42.848 688.624 42.384 689.04 41.76L690.312 42.624C689.816 43.44 689.136 44.064 688.272 44.496C687.408 44.912 686.44 45.12 685.368 45.12ZM698.196 39.384H695.316V45H693.612V32.376H695.316V37.92H698.22L702.66 32.376H704.508L699.54 38.496L704.868 45H702.852L698.196 39.384ZM711.666 32.28C713.314 32.28 714.578 32.696 715.458 33.528C716.338 34.344 716.778 35.56 716.778 37.176V45H715.146V43.032C714.762 43.688 714.194 44.2 713.442 44.568C712.706 44.936 711.826 45.12 710.802 45.12C709.394 45.12 708.274 44.784 707.442 44.112C706.61 43.44 706.194 42.552 706.194 41.448C706.194 40.376 706.578 39.512 707.346 38.856C708.13 38.2 709.37 37.872 711.066 37.872H715.074V37.104C715.074 36.016 714.77 35.192 714.162 34.632C713.554 34.056 712.666 33.768 711.498 33.768C710.698 33.768 709.93 33.904 709.194 34.176C708.458 34.432 707.826 34.792 707.298 35.256L706.53 33.984C707.17 33.44 707.938 33.024 708.834 32.736C709.73 32.432 710.674 32.28 711.666 32.28ZM711.066 43.776C712.026 43.776 712.85 43.56 713.538 43.128C714.226 42.68 714.738 42.04 715.074 41.208V39.144H711.114C708.954 39.144 707.874 39.896 707.874 41.4C707.874 42.136 708.154 42.72 708.714 43.152C709.274 43.568 710.058 43.776 711.066 43.776ZM731.011 32.376V45H729.451V40.824H725.491H725.011L722.083 45H720.235L723.379 40.584C722.403 40.312 721.651 39.848 721.123 39.192C720.595 38.536 720.331 37.704 720.331 36.696C720.331 35.288 720.811 34.216 721.771 33.48C722.731 32.744 724.043 32.376 725.707 32.376H731.011ZM722.059 36.744C722.059 38.616 723.251 39.552 725.635 39.552H729.451V33.888H725.755C723.291 33.888 722.059 34.84 722.059 36.744ZM756.695 28.2V45H754.943V29.736H744.311V45H742.559V28.2H756.695ZM766.299 32.28C767.947 32.28 769.211 32.696 770.091 33.528C770.971 34.344 771.411 35.56 771.411 37.176V45H769.779V43.032C769.395 43.688 768.827 44.2 768.075 44.568C767.339 44.936 766.459 45.12 765.435 45.12C764.027 45.12 762.907 44.784 762.075 44.112C761.243 43.44 760.827 42.552 760.827 41.448C760.827 40.376 761.211 39.512 761.979 38.856C762.763 38.2 764.003 37.872 765.699 37.872H769.707V37.104C769.707 36.016 769.403 35.192 768.795 34.632C768.187 34.056 767.299 33.768 766.131 33.768C765.331 33.768 764.563 33.904 763.827 34.176C763.091 34.432 762.459 34.792 761.931 35.256L761.163 33.984C761.803 33.44 762.571 33.024 763.467 32.736C764.363 32.432 765.307 32.28 766.299 32.28ZM765.699 43.776C766.659 43.776 767.483 43.56 768.171 43.128C768.859 42.68 769.371 42.04 769.707 41.208V39.144H765.747C763.587 39.144 762.507 39.896 762.507 41.4C762.507 42.136 762.787 42.72 763.347 43.152C763.907 43.568 764.691 43.776 765.699 43.776ZM779.122 32.28C780.386 32.28 781.522 32.56 782.53 33.12C783.554 33.664 784.354 34.424 784.93 35.4C785.522 36.376 785.818 37.472 785.818 38.688C785.818 39.904 785.522 41.008 784.93 42C784.354 42.976 783.554 43.744 782.53 44.304C781.522 44.864 780.386 45.144 779.122 45.144C778.066 45.144 777.098 44.984 776.218 44.664C775.338 44.328 774.594 43.848 773.986 43.224L774.994 42.216C776.066 43.224 777.418 43.728 779.05 43.728C779.962 43.728 780.786 43.536 781.522 43.152C782.274 42.768 782.882 42.232 783.346 41.544C783.826 40.856 784.106 40.088 784.186 39.24H777.442V37.944H784.162C783.986 36.68 783.426 35.656 782.482 34.872C781.538 34.072 780.394 33.672 779.05 33.672C777.418 33.672 776.066 34.176 774.994 35.184L773.986 34.2C774.594 33.576 775.338 33.104 776.218 32.784C777.098 32.448 778.066 32.28 779.122 32.28ZM799.65 32.376V45H797.946V33.888H791.898L791.73 37.008C791.602 39.632 791.298 41.648 790.818 43.056C790.338 44.464 789.482 45.168 788.25 45.168C787.914 45.168 787.506 45.104 787.026 44.976L787.146 43.512C787.434 43.576 787.634 43.608 787.746 43.608C788.402 43.608 788.898 43.304 789.234 42.696C789.57 42.088 789.794 41.336 789.906 40.44C790.018 39.544 790.114 38.36 790.194 36.888L790.41 32.376H799.65ZM809.918 36.84C811.502 36.856 812.702 37.208 813.518 37.896C814.35 38.584 814.766 39.576 814.766 40.872C814.766 42.216 814.318 43.248 813.422 43.968C812.542 44.688 811.262 45.04 809.582 45.024L804.494 45V32.376H806.198V36.792L809.918 36.84ZM809.486 43.728C810.654 43.744 811.534 43.512 812.126 43.032C812.734 42.536 813.038 41.816 813.038 40.872C813.038 39.944 812.742 39.256 812.15 38.808C811.558 38.36 810.67 38.128 809.486 38.112L806.198 38.064V43.68L809.486 43.728ZM826.776 32.376V45H825.216V40.824H821.256H820.776L817.848 45H816L819.144 40.584C818.168 40.312 817.416 39.848 816.888 39.192C816.36 38.536 816.096 37.704 816.096 36.696C816.096 35.288 816.576 34.216 817.536 33.48C818.496 32.744 819.808 32.376 821.472 32.376H826.776ZM817.824 36.744C817.824 38.616 819.016 39.552 821.4 39.552H825.216V33.888H821.52C819.056 33.888 817.824 34.84 817.824 36.744Z" fill="black"/>
</svg>
