<svg width="32" height="32" viewBox="0 0 32 32" fill="none" xmlns="http://www.w3.org/2000/svg">
<path fill-rule="evenodd" clip-rule="evenodd" d="M23.4663 15.8396C23.4663 11.6121 20.0116 8.17854 15.7422 8.17854V7.58862C20.3289 7.58862 24.0534 11.2793 24.0534 15.8396C24.0534 20.3998 20.3289 24.0905 15.7422 24.0905V23.5006C20.0116 23.5006 23.4663 20.0671 23.4663 15.8396Z" fill="#FE724D"/>
<path fill-rule="evenodd" clip-rule="evenodd" d="M15.7031 31.719V0.321289H16.3054V31.719H15.7031Z" fill="#FE724D"/>
<path fill-rule="evenodd" clip-rule="evenodd" d="M2.53125 7.58862H15.7408V8.19088H2.53125V7.58862Z" fill="#FE724D"/>
<path fill-rule="evenodd" clip-rule="evenodd" d="M0.28125 15.7388H16.0203V16.3009H0.28125V15.7388Z" fill="#FE724D"/>
<path fill-rule="evenodd" clip-rule="evenodd" d="M2.28906 23.4883H16.1812V24.0905H2.28906V23.4883Z" fill="#FE724D"/>
<path fill-rule="evenodd" clip-rule="evenodd" d="M1.14691 17.3623C1.45569 17.0494 1.84908 16.7427 2.51244 16.7427C3.30507 16.7427 3.71441 17.1829 4.04316 17.5364C4.0473 17.5408 4.05144 17.5453 4.05556 17.5497C4.3879 17.907 4.6416 18.1687 5.16561 18.1687C5.68962 18.1687 5.94332 17.907 6.27566 17.5497C6.27978 17.5453 6.28391 17.5408 6.28806 17.5364C6.6168 17.1829 7.02615 16.7427 7.81878 16.7427C8.61193 16.7427 9.02144 17.183 9.35031 17.5367L9.36244 17.5497C9.69485 17.907 9.94835 18.1687 10.4719 18.1687C10.996 18.1687 11.2497 17.907 11.582 17.5497L11.5944 17.5364C11.9231 17.1829 12.3325 16.7427 13.1251 16.7427C13.9183 16.7427 14.3278 17.183 14.6566 17.5367L14.6688 17.5497C15.0012 17.907 15.2547 18.1687 15.7783 18.1687V18.7502C14.9857 18.7502 14.5763 18.31 14.2476 17.9565L14.2352 17.9432C13.9028 17.5859 13.6491 17.3242 13.1251 17.3242C12.6015 17.3242 12.348 17.5858 12.0156 17.9432L12.0035 17.9562C11.6746 18.3098 11.2651 18.7502 10.4719 18.7502C9.67932 18.7502 9.26997 18.31 8.94123 17.9565L8.92882 17.9432C8.59649 17.5859 8.34278 17.3242 7.81878 17.3242C7.29518 17.3242 7.04168 17.5858 6.70927 17.9432L6.69714 17.9562C6.36827 18.3098 5.95876 18.7502 5.16561 18.7502C4.37245 18.7502 3.96295 18.3098 3.63408 17.9562C3.63002 17.9518 3.62598 17.9475 3.62195 17.9432C3.28953 17.5858 3.03604 17.3242 2.51244 17.3242C2.07647 17.3242 1.82591 17.5074 1.56865 17.7682C1.51352 17.8241 1.46024 17.8813 1.4036 17.9422C1.39137 17.9553 1.37898 17.9686 1.36639 17.9821C1.2971 18.0564 1.22285 18.1349 1.14348 18.2107C0.983971 18.3629 0.795139 18.5126 0.553355 18.6155L0.320312 18.0815C0.472381 18.0168 0.60251 17.9183 0.734257 17.7925C0.800506 17.7293 0.864959 17.6614 0.933344 17.5881C0.944785 17.5758 0.956391 17.5633 0.968143 17.5507C1.02495 17.4896 1.0852 17.4249 1.14691 17.3623Z" fill="#FE724D"/>
<path fill-rule="evenodd" clip-rule="evenodd" d="M1.30738 19.2295C1.59791 18.9658 1.96546 18.7505 2.51552 18.7505C3.30798 18.7505 3.71723 19.1995 4.0459 19.5601C4.05005 19.5646 4.05418 19.5692 4.05831 19.5737C4.39057 19.9381 4.64422 20.205 5.16811 20.205C5.69201 20.205 5.94566 19.9381 6.27792 19.5737C6.28204 19.5692 6.28617 19.5646 6.29032 19.5601C6.61899 19.1995 7.02825 18.7505 7.8207 18.7505C8.61369 18.7505 9.0231 19.1997 9.3519 19.5604L9.36403 19.5737C9.69637 19.9381 9.94981 20.205 10.4733 20.205C10.9972 20.205 11.2508 19.9381 11.5831 19.5737L11.5955 19.5601C11.9242 19.1995 12.3334 18.7505 13.1259 18.7505C13.9189 18.7505 14.3283 19.1997 14.6571 19.5604L14.6692 19.5737C15.0016 19.9381 15.255 20.205 15.7785 20.205V20.7982C14.986 20.7982 14.5768 20.3492 14.2481 19.9886L14.2357 19.975C13.9034 19.6106 13.6498 19.3437 13.1259 19.3437C12.6024 19.3437 12.349 19.6105 12.0166 19.975L12.0045 19.9883C11.6757 20.349 11.2663 20.7982 10.4733 20.7982C9.68084 20.7982 9.27158 20.3492 8.94291 19.9886L8.93051 19.975C8.59825 19.6106 8.3446 19.3437 7.8207 19.3437C7.29722 19.3437 7.04378 19.6105 6.71144 19.975C6.70741 19.9794 6.70337 19.9838 6.69931 19.9883C6.37051 20.349 5.9611 20.7982 5.16811 20.7982C4.37513 20.7982 3.96571 20.349 3.63691 19.9883C3.63286 19.9838 3.62882 19.9794 3.62479 19.975C3.29244 19.6105 3.039 19.3437 2.51552 19.3437C2.14684 19.3437 1.91377 19.4775 1.70137 19.6702C1.60095 19.7614 1.50894 19.8622 1.40583 19.9752C1.3929 19.9893 1.37979 20.0037 1.36647 20.0183C1.25125 20.1442 1.12169 20.2828 0.971083 20.4052L0.601562 19.9434C0.714936 19.8513 0.818672 19.7419 0.933619 19.6162C0.946327 19.6023 0.959219 19.5882 0.972296 19.5738C1.07309 19.4633 1.18484 19.3407 1.30738 19.2295Z" fill="#FE724D"/>
<path fill-rule="evenodd" clip-rule="evenodd" d="M1.125 21.4376C1.43613 21.1186 1.83207 20.7979 2.51061 20.7979C3.30344 20.7979 3.7129 21.238 4.04173 21.5916C4.04588 21.596 4.05001 21.6005 4.05414 21.6049C4.38656 21.9621 4.64033 22.2238 5.16448 22.2238C5.68862 22.2238 5.9424 21.9621 6.27482 21.6049C6.27894 21.6005 6.28308 21.596 6.28723 21.5916C6.61606 21.238 7.02551 20.7979 7.81835 20.7979C8.61171 20.7979 9.02133 21.2382 9.35029 21.5919L9.36242 21.6049C9.69492 21.9622 9.94848 22.2238 10.4722 22.2238C10.9964 22.2238 11.2501 21.9621 11.5826 21.6049L11.595 21.5916C11.9238 21.238 12.3333 20.7979 13.1261 20.7979C13.9195 20.7979 14.3291 21.2382 14.658 21.5919L14.6702 21.6049C15.0027 21.9622 15.2562 22.2238 15.78 22.2238V22.8054C14.9871 22.8054 14.5777 22.3652 14.2488 22.0117L14.2364 21.9983C13.904 21.6411 13.6502 21.3794 13.1261 21.3794C12.6024 21.3794 12.3488 21.641 12.0163 21.9983L12.0042 22.0114C11.6752 22.365 11.2656 22.8054 10.4722 22.8054C9.67938 22.8054 9.26993 22.3652 8.9411 22.0117L8.92869 21.9983C8.59627 21.6411 8.34249 21.3794 7.81835 21.3794C7.29461 21.3794 7.04105 21.641 6.70855 21.9983C6.70452 22.0027 6.70047 22.007 6.69641 22.0114C6.36746 22.365 5.95784 22.8054 5.16448 22.8054C4.37111 22.8054 3.9615 22.365 3.63254 22.0114C3.62848 22.007 3.62444 22.0027 3.62041 21.9983C3.28791 21.641 3.03434 21.3794 2.51061 21.3794C2.06549 21.3794 1.8134 21.5702 1.54926 21.841L1.125 21.4376Z" fill="#FE724D"/>
<path fill-rule="evenodd" clip-rule="evenodd" d="M3.57812 25.9372V23.769H4.18038V25.9372H3.57812Z" fill="#FE724D"/>
<path fill-rule="evenodd" clip-rule="evenodd" d="M5.53906 28.025V23.769H6.14132V28.025H5.53906Z" fill="#FE724D"/>
<path fill-rule="evenodd" clip-rule="evenodd" d="M7.54688 29.4303V23.769H8.14913V29.4303H7.54688Z" fill="#FE724D"/>
<path fill-rule="evenodd" clip-rule="evenodd" d="M9.51562 30.5143V23.769H10.1179V30.5143H9.51562Z" fill="#FE724D"/>
<path fill-rule="evenodd" clip-rule="evenodd" d="M11.5234 31.1567V23.769H12.1257V31.1567H11.5234Z" fill="#FE724D"/>
<path fill-rule="evenodd" clip-rule="evenodd" d="M13.4922 31.7189V23.769H14.0944V31.7189H13.4922Z" fill="#FE724D"/>
<path fill-rule="evenodd" clip-rule="evenodd" d="M15.4356 1.83578L14.1623 0.530582L14.5825 0.120117L16.2612 1.84076L14.2836 3.81947L16.2637 5.80067L14.076 7.98963L13.6608 7.57413L15.4332 5.80067L13.4531 3.81947L15.4356 1.83578Z" fill="#FE724D"/>
<path fill-rule="evenodd" clip-rule="evenodd" d="M11.4566 1.98942L10.7282 1.25943L11.1435 0.843262L12.2871 1.98942L10.3071 3.97381L12.2871 5.95819L10.0994 8.15066L9.68419 7.7345L11.4566 5.95819L9.47656 3.97381L11.4566 1.98942Z" fill="#FE724D"/>
<path fill-rule="evenodd" clip-rule="evenodd" d="M7.48021 5.88205L5.70312 4.10921L6.11948 3.69385L8.31291 5.88205L6.11948 8.07026L5.70312 7.6549L7.48021 5.88205Z" fill="#FE724D"/>
<path fill-rule="evenodd" clip-rule="evenodd" d="M16 0.588957C7.48872 0.588957 0.588957 7.48872 0.588957 16C0.588957 24.5113 7.48872 31.411 16 31.411C24.5113 31.411 31.411 24.5113 31.411 16C31.411 7.48872 24.5113 0.588957 16 0.588957ZM0 16C0 7.16344 7.16344 0 16 0C24.8366 0 32 7.16344 32 16C32 24.8366 24.8366 32 16 32C7.16344 32 0 24.8366 0 16Z" fill="#FE724D"/>
<path fill-rule="evenodd" clip-rule="evenodd" d="M16 0.588957C7.48872 0.588957 0.588957 7.48872 0.588957 16C0.588957 24.5113 7.48872 31.411 16 31.411C24.5113 31.411 31.411 24.5113 31.411 16C31.411 7.48872 24.5113 0.588957 16 0.588957ZM0 16C0 7.16344 7.16344 0 16 0C24.8366 0 32 7.16344 32 16C32 24.8366 24.8366 32 16 32C7.16344 32 0 24.8366 0 16Z" fill="#FE724D"/>
<path fill-rule="evenodd" clip-rule="evenodd" d="M11.167 10.3246C10.64 11.7267 10.3079 13.6836 10.3079 15.8596H9.71875C9.71875 13.6311 10.0578 11.6003 10.6157 10.1159C10.8943 9.37475 11.2332 8.75449 11.6244 8.31424C12.0154 7.87423 12.4834 7.58862 13.0111 7.58862C13.5388 7.58862 14.0068 7.87423 14.3978 8.31424C14.789 8.75449 15.1279 9.37475 15.4065 10.1159C15.9644 11.6003 16.3034 13.6311 16.3034 15.8596H15.7143C15.7143 13.6836 15.3822 11.7267 14.8552 10.3246C14.5913 9.62251 14.2842 9.07479 13.9581 8.70787C13.6319 8.34072 13.3112 8.17998 13.0111 8.17998C12.711 8.17998 12.3903 8.34072 12.0641 8.70787C11.738 9.07479 11.4309 9.62251 11.167 10.3246Z" fill="#FE724D"/>
<path fill-rule="evenodd" clip-rule="evenodd" d="M5.19041 10.3246C4.6634 11.7267 4.33136 13.6836 4.33136 15.8596H3.74219C3.74219 13.6311 4.08121 11.6003 4.63917 10.1159C4.91775 9.37475 5.2566 8.75449 5.64782 8.31424C6.03884 7.87423 6.50683 7.58862 7.03453 7.58862C7.56223 7.58862 8.03022 7.87423 8.42124 8.31424C8.81247 8.75449 9.15132 9.37475 9.4299 10.1159C9.98785 11.6003 10.3269 13.6311 10.3269 15.8596H9.73771C9.73771 13.6836 9.40567 11.7267 8.87866 10.3246C8.61475 9.62251 8.30763 9.07479 7.98156 8.70787C7.65529 8.34072 7.33465 8.17998 7.03453 8.17998C6.73442 8.17998 6.41378 8.34072 6.0875 8.70787C5.76144 9.07479 5.45432 9.62251 5.19041 10.3246Z" fill="#FE724D"/>
<path d="M2.43968 8.31396C2.83091 8.75421 3.16976 9.37447 3.44833 10.1156C4.00629 11.6 4.34532 13.6308 4.34532 15.8594H3.75615C3.75615 13.6833 3.42411 11.7265 2.89709 10.3244C2.63318 9.62223 2.32607 9.07451 2 8.70759L2.43968 8.31396Z" fill="#FE724D"/>
</svg>
