<svg width="38" height="38" viewBox="0 0 38 38" fill="none" xmlns="http://www.w3.org/2000/svg">
<path d="M26.9165 3.16688C29.0143 3.17315 29.1372 6.8296 30.6206 8.31301C32.104 9.79643 34.8275 8.98628 34.8337 11.0841V26.917C34.8275 29.0148 31.0438 28.0774 29.5604 29.5608C28.0769 31.0443 29.0143 34.8279 26.9165 34.8342H11.0836C8.98579 34.8279 8.90531 32.359 7.4219 30.8756C5.93848 29.3922 3.17266 29.0148 3.16639 26.917V11.0841C3.17266 8.98628 6.74429 8.31205 8.2277 6.82863C9.71112 5.34522 8.98579 3.17315 11.0836 3.16688H26.9165ZM26.9165 0.000488281H11.0836C4.98751 0.000488281 0 4.988 0 11.0841V26.917C0 33.0131 4.98751 38.0006 11.0836 38.0006H26.9165C33.0126 38.0006 38.0001 33.0131 38.0001 26.917V11.0841C38.0001 4.988 33.0126 0.000488281 26.9165 0.000488281Z" fill="#131313"/>
<path fill-rule="evenodd" clip-rule="evenodd" d="M38.0001 19.0005C38.0001 8.5081 29.4925 0.000488281 19.0001 0.000488281C8.50762 0.000488281 0 8.5081 0 19.0005C0 28.4836 6.9469 36.344 16.0313 37.7707V24.4944H11.2058V19.0005H16.0313V14.8146C16.0313 10.0536 18.8686 7.42154 23.2081 7.42154C25.287 7.42154 27.4619 7.79306 27.4619 7.79306V12.4693H25.0648C22.7059 12.4693 21.968 13.9333 21.968 15.438V19.0005H27.2371L26.3957 24.4944H21.9688V37.7724C31.0532 36.3466 38.0001 28.4862 38.0001 19.0005Z" fill="#131313"/>
</svg>
