<svg width="38" height="38" viewBox="0 0 38 38" fill="none" xmlns="http://www.w3.org/2000/svg">
<path d="M26.9165 3.16688C29.0143 3.17315 31.0245 4.00929 32.5079 5.49271C33.9913 6.97613 34.8275 8.98628 34.8337 11.0841V26.917C34.8275 29.0148 33.9913 31.025 32.5079 32.5084C31.0245 33.9918 29.0143 34.8279 26.9165 34.8342H11.0836C8.98579 34.8279 6.97564 33.9918 5.49222 32.5084C4.00881 31.025 3.17266 29.0148 3.16639 26.917V11.0841C3.17266 8.98628 4.00881 6.97613 5.49222 5.49271C6.97564 4.00929 8.98579 3.17315 11.0836 3.16688H26.9165ZM26.9165 0.000488281H11.0836C4.98751 0.000488281 0 4.988 0 11.0841V26.917C0 33.0131 4.98751 38.0006 11.0836 38.0006H26.9165C33.0126 38.0006 38.0001 33.0131 38.0001 26.917V11.0841C38.0001 4.988 33.0126 0.000488281 26.9165 0.000488281Z" fill="#131313"/>
<path d="M29.2914 11.084C28.8217 11.084 28.3625 10.9447 27.972 10.6837C27.5814 10.4228 27.277 10.0518 27.0972 9.61787C26.9175 9.18389 26.8704 8.70636 26.9621 8.24565C27.0537 7.78495 27.2799 7.36176 27.6121 7.02961C27.9442 6.69746 28.3674 6.47126 28.8281 6.37962C29.2888 6.28798 29.7663 6.33501 30.2003 6.51477C30.6343 6.69453 31.0052 6.99894 31.2662 7.38951C31.5272 7.78008 31.6665 8.23926 31.6665 8.70899C31.6671 9.02107 31.6061 9.33021 31.487 9.61866C31.3679 9.90711 31.193 10.1692 30.9723 10.3899C30.7517 10.6105 30.4896 10.7855 30.2011 10.9046C29.9127 11.0237 29.6035 11.0847 29.2914 11.084ZM19 12.6668C20.2527 12.6668 21.4773 13.0382 22.5188 13.7342C23.5604 14.4301 24.3722 15.4193 24.8515 16.5766C25.3309 17.734 25.4564 19.0074 25.212 20.236C24.9676 21.4646 24.3644 22.5932 23.4786 23.479C22.5928 24.3647 21.4643 24.968 20.2357 25.2123C19.0071 25.4567 17.7336 25.3313 16.5763 24.8519C15.4189 24.3725 14.4298 23.5607 13.7338 22.5192C13.0379 21.4776 12.6664 20.2531 12.6664 19.0004C12.6682 17.3212 13.3361 15.7112 14.5235 14.5238C15.7109 13.3364 17.3208 12.6686 19 12.6668ZM19 9.50038C17.1211 9.50038 15.2844 10.0575 13.7221 11.1014C12.1598 12.1453 10.9422 13.629 10.2232 15.3649C9.50412 17.1008 9.31598 19.0109 9.68254 20.8538C10.0491 22.6966 10.9539 24.3893 12.2825 25.7179C13.6111 27.0465 15.3038 27.9513 17.1467 28.3179C18.9895 28.6845 20.8996 28.4963 22.6355 27.7773C24.3714 27.0583 25.8551 25.8406 26.899 24.2783C27.9429 22.7161 28.5001 20.8793 28.5001 19.0004C28.5001 16.4808 27.4992 14.0645 25.7176 12.2829C23.936 10.5013 21.5196 9.50038 19 9.50038Z" fill="#131313"/>
</svg>
