<svg width="320" height="120" viewBox="0 0 320 120" fill="none" xmlns="http://www.w3.org/2000/svg">
<path d="M336.973 8.13614e-05C336.973 64.0635 317.115 116 292.62 116C268.124 116 248.267 64.0635 248.267 7.19478e-05" stroke="#FFBE4D" stroke-width="6.82351" stroke-miterlimit="10"/>
<path d="M71.707 8.13614e-05C71.707 64.0635 51.8498 116 27.3542 116C2.85863 116 -16.9986 64.0635 -16.9986 7.19478e-05" stroke="#FFBE4D" stroke-width="6.82351" stroke-miterlimit="10"/>
<path d="M159.984 8.13614e-05C159.984 64.0635 140.223 116 115.845 116C91.467 116 71.7052 64.0635 71.7052 7.19931e-05" stroke="#FFBE4D" stroke-width="6.82351" stroke-miterlimit="10"/>
<path d="M248.266 8.13614e-05C248.266 64.0635 228.504 116 204.126 116C179.748 116 159.986 64.0635 159.986 7.19931e-05" stroke="#FFBE4D" stroke-width="6.82351" stroke-miterlimit="10"/>
<path d="M-14.4414 3.41187H599.675" stroke="#FFBE4D" stroke-width="6.82351"/>
</svg>
