<svg width="174" height="53" viewBox="0 0 174 53" fill="none" xmlns="http://www.w3.org/2000/svg">
<path d="M0 16.5936C8.07002 8.31977 18.3395 0 35.9392 0C56.5034 0 67.1236 11.4174 75.6526 20.5867L75.9745 20.9327C84.5967 30.1985 91.1789 36.9866 104.774 36.9866C118.369 36.9866 124.951 30.1985 133.573 20.9327L133.895 20.5867C142.424 11.4174 153.044 0 173.609 0V15.0836C160.024 15.0836 153.448 21.8696 144.823 31.1376L144.509 31.4759C135.976 40.6485 125.352 52.0703 104.774 52.0703C84.196 52.0703 73.5716 40.6485 65.0393 31.4759L64.7246 31.1376C56.1004 21.8696 49.5235 15.0836 35.9392 15.0836C24.394 15.0836 17.8553 20.0323 11.0041 27.0565L0 16.5936Z" fill="#FE724D"/>
</svg>
