<svg width="768" height="280" viewBox="0 0 768 280" fill="none" xmlns="http://www.w3.org/2000/svg">
<path d="M488 0.000492781C488 150.219 441.438 272 384 272C326.562 272 280 150.219 280 0.000470707" stroke="#FFBE4D" stroke-width="16" stroke-miterlimit="10"/>
<path d="M695 0.000492781C695 150.219 648.662 272 591.5 272C534.338 272 488 150.219 488 0.000470814" stroke="#FFBE4D" stroke-width="16" stroke-miterlimit="10"/>
<path d="M73 0.000492781C73 150.219 26.6619 272 -30.5 272C-87.6619 272 -134 150.219 -134 0.000470814" stroke="#FFBE4D" stroke-width="16" stroke-miterlimit="10"/>
<path d="M902 0.000492781C902 150.219 855.662 272 798.5 272C741.338 272 695 150.219 695 0.000470814" stroke="#FFBE4D" stroke-width="16" stroke-miterlimit="10"/>
<path d="M280 0.000492781C280 150.219 233.662 272 176.5 272C119.338 272 73 150.219 73 0.000470814" stroke="#FFBE4D" stroke-width="16" stroke-miterlimit="10"/>
<path d="M-336 8.00049H1104" stroke="#FFBE4D" stroke-width="16"/>
</svg>
