<svg width="1440" height="280" viewBox="0 0 1440 280" fill="none" xmlns="http://www.w3.org/2000/svg">
<path d="M824 0.000492781C824 150.219 777.438 272 720 272C662.562 272 616 150.219 616 0.000470707" stroke="#FFBE4D" stroke-width="16" stroke-miterlimit="10"/>
<path d="M202 0.000492781C202 150.219 155.438 272 98 272C40.5619 272 -5.99999 150.219 -5.99997 0.000470707" stroke="#FFBE4D" stroke-width="16" stroke-miterlimit="10"/>
<path d="M1031 0.000492781C1031 150.219 984.662 272 927.5 272C870.338 272 824 150.219 824 0.000470814" stroke="#FFBE4D" stroke-width="16" stroke-miterlimit="10"/>
<path d="M409 0.000492781C409 150.219 362.662 272 305.5 272C248.338 272 202 150.219 202 0.000470814" stroke="#FFBE4D" stroke-width="16" stroke-miterlimit="10"/>
<path d="M1238 0.000492781C1238 150.219 1191.66 272 1134.5 272C1077.34 272 1031 150.219 1031 0.000470814" stroke="#FFBE4D" stroke-width="16" stroke-miterlimit="10"/>
<path d="M1445 0.000492781C1445 150.219 1398.66 272 1341.5 272C1284.34 272 1238 150.219 1238 0.000470814" stroke="#FFBE4D" stroke-width="16" stroke-miterlimit="10"/>
<path d="M616 0.000492781C616 150.219 569.662 272 512.5 272C455.338 272 409 150.219 409 0.000470814" stroke="#FFBE4D" stroke-width="16" stroke-miterlimit="10"/>
<path d="M0 8.00049H1440" stroke="#FFBE4D" stroke-width="16"/>
</svg>
