<svg width="588" height="149" viewBox="0 0 588 149" fill="none" xmlns="http://www.w3.org/2000/svg">
<path d="M0 16.5936C8.07002 8.31977 18.3395 0 35.9392 0C56.5034 0 67.1236 11.4174 75.6526 20.5867L75.9745 20.9327C84.5967 30.1985 91.1789 36.9866 104.774 36.9866C118.369 36.9866 124.951 30.1985 133.573 20.9327L133.895 20.5867C142.424 11.4174 153.044 0 173.609 0V15.0836C160.024 15.0836 153.448 21.8696 144.823 31.1376L144.509 31.4759C135.976 40.6485 125.352 52.0703 104.774 52.0703C84.196 52.0703 73.5716 40.6485 65.0393 31.4759L64.7246 31.1376C56.1004 21.8696 49.5235 15.0836 35.9392 15.0836C24.394 15.0836 17.8553 20.0323 11.0041 27.0565L0 16.5936Z" fill="#FFBE4D"/>
<path d="M138 16.5936C146.07 8.31977 156.34 0 173.939 0C194.503 0 205.124 11.4174 213.653 20.5867L213.975 20.9327C222.597 30.1985 229.179 36.9866 242.774 36.9866C256.369 36.9866 262.951 30.1985 271.573 20.9327L271.895 20.5867C280.424 11.4174 291.044 0 311.609 0V15.0836C298.024 15.0836 291.448 21.8696 282.823 31.1376L282.509 31.4759C273.976 40.6485 263.352 52.0703 242.774 52.0703C222.196 52.0703 211.572 40.6485 203.039 31.4759L202.725 31.1376C194.1 21.8696 187.524 15.0836 173.939 15.0836C162.394 15.0836 155.855 20.0323 149.004 27.0565L138 16.5936Z" fill="#FFBE4D"/>
<path d="M276 16.5936C284.07 8.31977 294.34 0 311.939 0C332.503 0 343.124 11.4174 351.653 20.5867L351.975 20.9327C360.597 30.1985 367.179 36.9866 380.774 36.9866C394.369 36.9866 400.951 30.1985 409.573 20.9327L409.895 20.5867C418.424 11.4174 429.044 0 449.609 0V15.0836C436.024 15.0836 429.448 21.8696 420.823 31.1376L420.509 31.4759C411.976 40.6485 401.352 52.0703 380.774 52.0703C360.196 52.0703 349.572 40.6485 341.039 31.4759L340.725 31.1376C332.1 21.8696 325.524 15.0836 311.939 15.0836C300.394 15.0836 293.855 20.0323 287.004 27.0565L276 16.5936Z" fill="#FFBE4D"/>
<path d="M414 16.5936C422.07 8.31977 432.34 0 449.939 0C470.503 0 481.124 11.4174 489.653 20.5867L489.975 20.9327C498.597 30.1985 505.179 36.9866 518.774 36.9866C532.369 36.9866 538.951 30.1985 547.573 20.9327L547.895 20.5867C556.424 11.4174 567.044 0 587.609 0V15.0836C574.024 15.0836 567.448 21.8696 558.823 31.1376L558.509 31.4759C549.976 40.6485 539.352 52.0703 518.774 52.0703C498.196 52.0703 487.572 40.6485 479.039 31.4759L478.725 31.1376C470.1 21.8696 463.524 15.0836 449.939 15.0836C438.394 15.0836 431.855 20.0323 425.004 27.0565L414 16.5936Z" fill="#FFBE4D"/>
<path d="M0 112.664C8.07002 104.39 18.3395 96.0703 35.9392 96.0703C56.5034 96.0703 67.1236 107.488 75.6526 116.657L75.9745 117.003C84.5967 126.269 91.1789 133.057 104.774 133.057C118.369 133.057 124.951 126.269 133.573 117.003L133.895 116.657C142.424 107.488 153.044 96.0703 173.609 96.0703V111.154C160.024 111.154 153.448 117.94 144.823 127.208L144.509 127.546C135.976 136.719 125.352 148.141 104.774 148.141C84.196 148.141 73.5716 136.719 65.0393 127.546L64.7246 127.208C56.1004 117.94 49.5235 111.154 35.9392 111.154C24.394 111.154 17.8553 116.103 11.0041 123.127L0 112.664Z" fill="#FFBE4D"/>
<path d="M138 112.664C146.07 104.39 156.34 96.0703 173.939 96.0703C194.503 96.0703 205.124 107.488 213.653 116.657L213.975 117.003C222.597 126.269 229.179 133.057 242.774 133.057C256.369 133.057 262.951 126.269 271.573 117.003L271.895 116.657C280.424 107.488 291.044 96.0703 311.609 96.0703V111.154C298.024 111.154 291.448 117.94 282.823 127.208L282.509 127.546C273.976 136.719 263.352 148.141 242.774 148.141C222.196 148.141 211.572 136.719 203.039 127.546L202.725 127.208C194.1 117.94 187.524 111.154 173.939 111.154C162.394 111.154 155.855 116.103 149.004 123.127L138 112.664Z" fill="#FFBE4D"/>
<path d="M276 112.664C284.07 104.39 294.34 96.0703 311.939 96.0703C332.503 96.0703 343.124 107.488 351.653 116.657L351.975 117.003C360.597 126.269 367.179 133.057 380.774 133.057C394.369 133.057 400.951 126.269 409.573 117.003L409.895 116.657C418.424 107.488 429.044 96.0703 449.609 96.0703V111.154C436.024 111.154 429.448 117.94 420.823 127.208L420.509 127.546C411.976 136.719 401.352 148.141 380.774 148.141C360.196 148.141 349.572 136.719 341.039 127.546L340.725 127.208C332.1 117.94 325.524 111.154 311.939 111.154C300.394 111.154 293.855 116.103 287.004 123.127L276 112.664Z" fill="#FFBE4D"/>
<path d="M414 112.664C422.07 104.39 432.34 96.0703 449.939 96.0703C470.503 96.0703 481.124 107.488 489.653 116.657L489.975 117.003C498.597 126.269 505.179 133.057 518.774 133.057C532.369 133.057 538.951 126.269 547.573 117.003L547.895 116.657C556.424 107.488 567.044 96.0703 587.609 96.0703V111.154C574.024 111.154 567.448 117.94 558.823 127.208L558.509 127.546C549.976 136.719 539.352 148.141 518.774 148.141C498.196 148.141 487.572 136.719 479.039 127.546L478.725 127.208C470.1 117.94 463.524 111.154 449.939 111.154C438.394 111.154 431.855 116.103 425.004 123.127L414 112.664Z" fill="#FFBE4D"/>
</svg>
