<svg width="81" height="81" viewBox="0 0 81 81" fill="none" xmlns="http://www.w3.org/2000/svg">
<path fill-rule="evenodd" clip-rule="evenodd" d="M59.3915 40.0938C59.3915 29.393 50.6469 20.7018 39.8398 20.7018V19.2086C51.45 19.2086 60.8775 28.5507 60.8775 40.0938C60.8775 51.6369 51.45 60.979 39.8398 60.979V59.4858C50.6469 59.4858 59.3915 50.7947 59.3915 40.0938Z" fill="#131313"/>
<path fill-rule="evenodd" clip-rule="evenodd" d="M39.7383 80.2885V0.812988H41.2627V80.2885H39.7383Z" fill="#131313"/>
<path fill-rule="evenodd" clip-rule="evenodd" d="M6.40234 19.2086H39.839V20.7331H6.40234V19.2086Z" fill="#131313"/>
<path fill-rule="evenodd" clip-rule="evenodd" d="M0.710938 39.8391H40.5503V41.2619H0.710938V39.8391Z" fill="#131313"/>
<path fill-rule="evenodd" clip-rule="evenodd" d="M5.79297 59.4543H40.9573V60.9788H5.79297V59.4543Z" fill="#131313"/>
<path fill-rule="evenodd" clip-rule="evenodd" d="M2.90482 43.9485C3.68642 43.1563 4.6822 42.38 6.36133 42.38C8.36766 42.38 9.40382 43.4942 10.2359 44.3891C10.2464 44.4004 10.2569 44.4116 10.2674 44.4228C11.1086 45.3271 11.7508 45.9895 13.0772 45.9895C14.4036 45.9895 15.0457 45.3271 15.887 44.4228C15.8974 44.4116 15.9079 44.4004 15.9184 44.3891C16.7505 43.4942 17.7866 42.38 19.793 42.38C21.8007 42.38 22.8372 43.4947 23.6697 44.3898L23.7004 44.4228C24.5418 45.3273 25.1835 45.9895 26.5088 45.9895C27.8352 45.9895 28.4774 45.3271 29.3186 44.4228L29.35 44.3891C30.1822 43.4942 31.2183 42.38 33.2246 42.38C35.2323 42.38 36.2689 43.4947 37.1013 44.3898L37.132 44.4228C37.9735 45.3273 38.6151 45.9895 39.9405 45.9895V47.4616C37.9341 47.4616 36.898 46.3473 36.0659 45.4525L36.0345 45.4187C35.1932 44.5145 34.551 43.852 33.2246 43.852C31.8993 43.852 31.2576 44.5143 30.4162 45.4187L30.3855 45.4518C29.5531 46.3469 28.5165 47.4616 26.5088 47.4616C24.5025 47.4616 23.4663 46.3473 22.6342 45.4525L22.6028 45.4187C21.7616 44.5145 21.1194 43.852 19.793 43.852C18.4676 43.852 17.826 44.5143 16.9846 45.4187L16.9538 45.4517C16.1214 46.3469 15.0848 47.4616 13.0772 47.4616C11.0695 47.4616 10.0329 46.3469 9.20047 45.4517C9.1902 45.4407 9.17997 45.4297 9.16976 45.4187C8.32834 44.5143 7.68667 43.852 6.36133 43.852C5.25777 43.852 4.62355 44.3158 3.97235 44.9758C3.8328 45.1172 3.69793 45.2622 3.55457 45.4162C3.52361 45.4495 3.49226 45.4832 3.46038 45.5173C3.285 45.7053 3.09706 45.9041 2.89614 46.0959C2.49239 46.4812 2.0144 46.8602 1.40239 47.1207L0.8125 45.7688C1.19742 45.605 1.52681 45.3557 1.8603 45.0374C2.02799 44.8773 2.19114 44.7054 2.36424 44.5199C2.3932 44.4888 2.42257 44.4573 2.45232 44.4253C2.59612 44.2707 2.74862 44.1068 2.90482 43.9485Z" fill="#131313"/>
<path fill-rule="evenodd" clip-rule="evenodd" d="M3.31395 48.6744C4.04934 48.007 4.97971 47.4619 6.37205 47.4619C8.37795 47.4619 9.41389 48.5984 10.2458 49.5112C10.2563 49.5227 10.2668 49.5342 10.2772 49.5456C11.1183 50.4679 11.7603 51.1436 13.0864 51.1436C14.4125 51.1436 15.0546 50.4679 15.8956 49.5456C15.9061 49.5342 15.9165 49.5227 15.927 49.5112C16.759 48.5984 17.7949 47.4619 19.8008 47.4619C21.808 47.4619 22.8444 48.5989 23.6766 49.5119L23.7073 49.5456C24.5486 50.4682 25.1901 51.1436 26.5152 51.1436C27.8413 51.1436 28.4833 50.4679 29.3244 49.5456L29.3558 49.5112C30.1877 48.5984 31.2236 47.4619 33.2295 47.4619C35.2368 47.4619 36.2731 48.5989 37.1054 49.5119L37.1361 49.5456C37.9773 50.4682 38.6188 51.1436 39.9439 51.1436V52.6451C37.938 52.6451 36.9021 51.5086 36.0701 50.5959L36.0387 50.5614C35.1977 49.6391 34.5556 48.9634 33.2295 48.9634C31.9045 48.9634 31.2629 49.6389 30.4217 50.5614L30.391 50.5951C29.5587 51.5082 28.5224 52.6451 26.5152 52.6451C24.5093 52.6451 23.4733 51.5086 22.6414 50.5959L22.61 50.5614C21.769 49.6391 21.1269 48.9634 19.8008 48.9634C18.4757 48.9634 17.8342 49.6389 16.993 50.5614C16.9828 50.5726 16.9725 50.5838 16.9623 50.5951C16.13 51.5082 15.0937 52.6451 13.0864 52.6451C11.0792 52.6451 10.0428 51.5082 9.21058 50.5951C9.20031 50.5838 9.19008 50.5726 9.17988 50.5614C8.33864 49.6389 7.69711 48.9634 6.37205 48.9634C5.43882 48.9634 4.84887 49.3021 4.31124 49.79C4.05704 50.0207 3.82413 50.2759 3.56314 50.5619C3.53041 50.5978 3.49723 50.6341 3.46352 50.671C3.17187 50.9897 2.84392 51.3407 2.46269 51.6504L1.52734 50.4816C1.81432 50.2484 2.0769 49.9713 2.36786 49.6533C2.40003 49.6181 2.43266 49.5823 2.46576 49.546C2.72089 49.2662 3.00377 48.9558 3.31395 48.6744Z" fill="#131313"/>
<path fill-rule="evenodd" clip-rule="evenodd" d="M2.84766 54.2639C3.63521 53.4565 4.63742 52.6445 6.35498 52.6445C8.36184 52.6445 9.39827 53.7588 10.2306 54.6536C10.2411 54.6649 10.2516 54.6761 10.262 54.6874C11.1035 55.5916 11.7458 56.2541 13.0726 56.2541C14.3993 56.2541 15.0417 55.5916 15.8831 54.6874C15.8936 54.6761 15.904 54.6649 15.9145 54.6536C16.7469 53.7588 17.7833 52.6445 19.7902 52.6445C21.7984 52.6445 22.8352 53.7592 23.6679 54.6543L23.6986 54.6874C24.5403 55.5918 25.1821 56.2541 26.5078 56.2541C27.8345 56.2541 28.4769 55.5916 29.3183 54.6874L29.3498 54.6536C30.1821 53.7588 31.2185 52.6445 33.2254 52.6445C35.2336 52.6445 36.2705 53.7592 37.1031 54.6543L37.1338 54.6874C37.9755 55.5918 38.6173 56.2541 39.943 56.2541V57.7261C37.9361 57.7261 36.8997 56.6119 36.0674 55.717L36.036 55.6833C35.1945 54.779 34.5522 54.1165 33.2254 54.1165C31.8997 54.1165 31.2579 54.7788 30.4162 55.6833L30.3855 55.7163C29.5528 56.6114 28.516 57.7261 26.5078 57.7261C24.5009 57.7261 23.4645 56.6119 22.6322 55.717L22.6007 55.6833C21.7593 54.779 21.1169 54.1165 19.7902 54.1165C18.4645 54.1165 17.8227 54.7788 16.981 55.6833C16.9708 55.6942 16.9606 55.7052 16.9503 55.7163C16.1176 56.6114 15.0808 57.7261 13.0726 57.7261C11.0644 57.7261 10.0275 56.6114 9.19487 55.7163C9.1846 55.7052 9.17436 55.6942 9.16415 55.6833C8.32251 54.7788 7.68068 54.1165 6.35498 54.1165C5.22827 54.1165 4.59016 54.5995 3.92155 55.285L2.84766 54.2639Z" fill="#131313"/>
<path fill-rule="evenodd" clip-rule="evenodd" d="M9.04297 65.6534V60.1653H10.5674V65.6534H9.04297Z" fill="#131313"/>
<path fill-rule="evenodd" clip-rule="evenodd" d="M14.0273 70.9382V60.1653H15.5518V70.9382H14.0273Z" fill="#131313"/>
<path fill-rule="evenodd" clip-rule="evenodd" d="M19.1055 74.4953V60.1653H20.6299V74.4953H19.1055Z" fill="#131313"/>
<path fill-rule="evenodd" clip-rule="evenodd" d="M24.0859 77.2393V60.1653H25.6104V77.2393H24.0859Z" fill="#131313"/>
<path fill-rule="evenodd" clip-rule="evenodd" d="M29.168 78.8654V60.1653H30.6924V78.8654H29.168Z" fill="#131313"/>
<path fill-rule="evenodd" clip-rule="evenodd" d="M34.1484 80.2882V60.1653H35.6729V80.2882H34.1484Z" fill="#131313"/>
<path fill-rule="evenodd" clip-rule="evenodd" d="M39.0651 4.64722L35.8419 1.34343L36.9056 0.304443L41.1548 4.65981L36.1491 9.66843L41.1611 14.6834L35.6235 20.2241L34.5724 19.1724L39.0588 14.6834L34.0469 9.66843L39.0651 4.64722Z" fill="#131313"/>
<path fill-rule="evenodd" clip-rule="evenodd" d="M28.9963 5.03598L27.1526 3.18819L28.2037 2.13477L31.0986 5.03598L26.0866 10.059L31.0986 15.0819L25.561 20.6316L24.5099 19.5782L28.9963 15.0819L23.9844 10.059L28.9963 5.03598Z" fill="#131313"/>
<path fill-rule="evenodd" clip-rule="evenodd" d="M18.9279 14.8889L14.4297 10.4014L15.4836 9.34998L21.0357 14.8889L15.4836 20.4278L14.4297 19.3764L18.9279 14.8889Z" fill="#131313"/>
<path fill-rule="evenodd" clip-rule="evenodd" d="M40.5 1.4908C18.9558 1.4908 1.4908 18.9558 1.4908 40.5C1.4908 62.0442 18.9558 79.5092 40.5 79.5092C62.0442 79.5092 79.5092 62.0442 79.5092 40.5C79.5092 18.9558 62.0442 1.4908 40.5 1.4908ZM0 40.5C0 18.1325 18.1325 0 40.5 0C62.8675 0 81 18.1325 81 40.5C81 62.8675 62.8675 81 40.5 81C18.1325 81 0 62.8675 0 40.5Z" fill="#131313"/>
<path fill-rule="evenodd" clip-rule="evenodd" d="M40.5 1.4908C18.9558 1.4908 1.4908 18.9558 1.4908 40.5C1.4908 62.0442 18.9558 79.5092 40.5 79.5092C62.0442 79.5092 79.5092 62.0442 79.5092 40.5C79.5092 18.9558 62.0442 1.4908 40.5 1.4908ZM0 40.5C0 18.1325 18.1325 0 40.5 0C62.8675 0 81 18.1325 81 40.5C81 62.8675 62.8675 81 40.5 81C18.1325 81 0 62.8675 0 40.5Z" fill="#131313"/>
<path fill-rule="evenodd" clip-rule="evenodd" d="M28.2596 26.1341C26.9256 29.6832 26.0851 34.6365 26.0851 40.1446H24.5938C24.5938 34.5037 25.4519 29.3632 26.8642 25.6058C27.5694 23.7297 28.4271 22.1597 29.4174 21.0453C30.4072 19.9316 31.5918 19.2086 32.9275 19.2086C34.2632 19.2086 35.4478 19.9316 36.4376 21.0453C37.4279 22.1597 38.2856 23.7297 38.9908 25.6058C40.4031 29.3632 41.2613 34.5037 41.2613 40.1446H39.7699C39.7699 34.6365 38.9294 29.6832 37.5954 26.1341C36.9274 24.3569 36.15 22.9705 35.3247 22.0417C34.4988 21.1124 33.6872 20.7055 32.9275 20.7055C32.1678 20.7055 31.3562 21.1124 30.5303 22.0417C29.705 22.9705 28.9276 24.3569 28.2596 26.1341Z" fill="#131313"/>
<path fill-rule="evenodd" clip-rule="evenodd" d="M13.1307 26.1341C11.7967 29.6832 10.9562 34.6365 10.9562 40.1446H9.46484C9.46484 34.5037 10.323 29.3632 11.7353 25.6058C12.4405 23.7297 13.2982 22.1597 14.2885 21.0453C15.2783 19.9316 16.4629 19.2086 17.7986 19.2086C19.1343 19.2086 20.3189 19.9316 21.3087 21.0453C22.299 22.1597 23.1567 23.7297 23.8619 25.6058C25.2742 29.3632 26.1323 34.5037 26.1323 40.1446H24.641C24.641 34.6365 23.8005 29.6832 22.4665 26.1341C21.7985 24.3569 21.0211 22.9705 20.1958 22.0417C19.3699 21.1124 18.5583 20.7055 17.7986 20.7055C17.0389 20.7055 16.2273 21.1124 15.4014 22.0417C14.5761 22.9705 13.7987 24.3569 13.1307 26.1341Z" fill="#131313"/>
<path d="M6.18325 21.045C7.17355 22.1594 8.03126 23.7295 8.73641 25.6055C10.1487 29.3629 11.0069 34.5034 11.0069 40.1443H9.51556C9.51556 34.6362 8.67509 29.6829 7.34107 26.1338C6.67305 24.3566 5.89567 22.9702 5.07031 22.0414L6.18325 21.045Z" fill="#131313"/>
</svg>
